<svg width="578" height="401" viewBox="0 0 578 401" fill="none" xmlns="http://www.w3.org/2000/svg">
<mask id="mask0_947_1823" style="mask-type:alpha" maskUnits="userSpaceOnUse" x="0" y="0" width="579" height="401">
<path d="M0 0.98999H578V400.192H0V0.98999Z" fill="#F5F5F5"/>
</mask>
<g mask="url(#mask0_947_1823)">
<rect x="-106.899" y="-56.6067" width="790.533" height="533.02" fill="#E7E7EA"/>
<rect x="92.2334" y="469.188" width="321.831" height="305.016" rx="10" transform="rotate(-145.501 92.2334 469.188)" fill="white"/>
<rect x="92.2334" y="469.188" width="321.831" height="305.016" rx="10" transform="rotate(-145.501 92.2334 469.188)" fill="url(#paint0_linear_947_1823)"/>
<rect x="92.2334" y="469.188" width="321.831" height="305.016" rx="10" transform="rotate(-145.501 92.2334 469.188)" fill="url(#paint1_radial_947_1823)"/>
<rect x="389.39" y="237.112" width="121.347" height="115.007" rx="10" transform="rotate(-145.501 389.39 237.112)" fill="white"/>
<rect x="389.39" y="237.112" width="121.347" height="115.007" rx="10" transform="rotate(-145.501 389.39 237.112)" fill="url(#paint2_linear_947_1823)"/>
<rect x="389.39" y="237.112" width="121.347" height="115.007" rx="10" transform="rotate(-145.501 389.39 237.112)" fill="url(#paint3_radial_947_1823)"/>
</g>
<defs>
<linearGradient id="paint0_linear_947_1823" x1="253.149" y1="469.188" x2="253.149" y2="774.203" gradientUnits="userSpaceOnUse">
<stop stop-color="#727272"/>
<stop offset="1" stop-opacity="0"/>
</linearGradient>
<radialGradient id="paint1_radial_947_1823" cx="0" cy="0" r="1" gradientUnits="userSpaceOnUse" gradientTransform="translate(357.27 740.113) rotate(-129.96) scale(238.76 241.348)">
<stop stop-color="white"/>
<stop offset="0.671875" stop-color="white" stop-opacity="0"/>
</radialGradient>
<linearGradient id="paint2_linear_947_1823" x1="450.064" y1="237.112" x2="450.064" y2="352.119" gradientUnits="userSpaceOnUse">
<stop stop-color="#727272"/>
<stop offset="1" stop-opacity="0"/>
</linearGradient>
<radialGradient id="paint3_radial_947_1823" cx="0" cy="0" r="1" gradientUnits="userSpaceOnUse" gradientTransform="translate(489.323 339.265) rotate(-129.96) scale(90.0254 91.0011)">
<stop stop-color="white"/>
<stop offset="0.671875" stop-color="white" stop-opacity="0"/>
</radialGradient>
</defs>
</svg>
