<svg width="578" height="400" viewBox="0 0 578 400" fill="none" xmlns="http://www.w3.org/2000/svg">
<mask id="mask0_947_1816" style="mask-type:alpha" maskUnits="userSpaceOnUse" x="0" y="0" width="579" height="400">
<path d="M0 0.365967H578V399.568H0V0.365967Z" fill="#F5F5F5"/>
</mask>
<g mask="url(#mask0_947_1816)">
<rect x="-111.156" y="-57.2307" width="790.533" height="533.02" rx="18.8706" fill="#E7E7EA"/>
<path d="M121.865 -2.69844C150.824 -0.366359 166.4 32.4407 149.9 56.3542L87.1403 147.316C70.641 171.23 34.4417 168.315 21.9816 142.069L-25.4138 42.2363C-37.8738 15.9907 -17.2497 -13.9013 11.7097 -11.5692L121.865 -2.69844Z" fill="url(#paint0_linear_947_1816)"/>
<path d="M121.865 -2.69844C150.824 -0.366359 166.4 32.4407 149.9 56.3542L87.1403 147.316C70.641 171.23 34.4417 168.315 21.9816 142.069L-25.4138 42.2363C-37.8738 15.9907 -17.2497 -13.9013 11.7097 -11.5692L121.865 -2.69844Z" fill="url(#paint1_radial_947_1816)"/>
<rect x="36.7527" y="633.188" width="158.863" height="538.519" rx="79.4313" transform="rotate(-145.501 36.7527 633.188)" fill="white"/>
<rect x="36.7527" y="633.188" width="158.863" height="538.519" rx="79.4313" transform="rotate(-145.501 36.7527 633.188)" fill="url(#paint2_linear_947_1816)"/>
<rect x="36.7527" y="633.188" width="158.863" height="538.519" rx="79.4313" transform="rotate(-145.501 36.7527 633.188)" fill="url(#paint3_radial_947_1816)"/>
<rect x="461.341" y="380.322" width="158.863" height="538.519" rx="79.4313" transform="rotate(-145.501 461.341 380.322)" fill="white"/>
<rect x="461.341" y="380.322" width="158.863" height="538.519" rx="79.4313" transform="rotate(-145.501 461.341 380.322)" fill="url(#paint4_linear_947_1816)"/>
<rect x="461.341" y="380.322" width="158.863" height="538.519" rx="79.4313" transform="rotate(-145.501 461.341 380.322)" fill="url(#paint5_radial_947_1816)"/>
</g>
<defs>
<linearGradient id="paint0_linear_947_1816" x1="320.938" y1="-203.263" x2="24.1016" y2="144.818" gradientUnits="userSpaceOnUse">
<stop/>
<stop offset="1" stop-opacity="0"/>
</linearGradient>
<radialGradient id="paint1_radial_947_1816" cx="0" cy="0" r="1" gradientUnits="userSpaceOnUse" gradientTransform="translate(2.14925 190.085) rotate(-63.8497) scale(213.436)">
<stop stop-color="white"/>
<stop offset="0.671875" stop-color="white" stop-opacity="0"/>
</radialGradient>
<linearGradient id="paint2_linear_947_1816" x1="116.184" y1="633.188" x2="116.184" y2="1171.71" gradientUnits="userSpaceOnUse">
<stop stop-color="#727272"/>
<stop offset="1" stop-opacity="0"/>
</linearGradient>
<radialGradient id="paint3_radial_947_1816" cx="0" cy="0" r="1" gradientUnits="userSpaceOnUse" gradientTransform="translate(167.581 1111.52) rotate(-103.185) scale(331.859 151.33)">
<stop stop-color="white"/>
<stop offset="0.671875" stop-color="white" stop-opacity="0"/>
</radialGradient>
<linearGradient id="paint4_linear_947_1816" x1="540.772" y1="380.322" x2="540.772" y2="918.842" gradientUnits="userSpaceOnUse">
<stop stop-color="#727272"/>
<stop offset="1" stop-opacity="0"/>
</linearGradient>
<radialGradient id="paint5_radial_947_1816" cx="0" cy="0" r="1" gradientUnits="userSpaceOnUse" gradientTransform="translate(592.169 858.654) rotate(-103.185) scale(331.859 151.33)">
<stop stop-color="white"/>
<stop offset="0.671875" stop-color="white" stop-opacity="0"/>
</radialGradient>
</defs>
</svg>
