<svg width="236" height="236" viewBox="0 0 236 236" fill="none" xmlns="http://www.w3.org/2000/svg">
<g clip-path="url(#clip0_962_1727)">
<rect width="236" height="236" fill="#E8E8EB"/>
<path d="M93.0596 118.221C100.952 99.387 127.638 99.387 135.531 118.221L184.311 234.624C190.669 249.796 179.526 266.548 163.075 266.548H65.5152C49.0649 266.548 37.9214 249.796 44.2794 234.624L93.0596 118.221Z" fill="white"/>
<path d="M93.0596 118.221C100.952 99.387 127.638 99.387 135.531 118.221L184.311 234.624C190.669 249.796 179.526 266.548 163.075 266.548H65.5152C49.0649 266.548 37.9214 249.796 44.2794 234.624L93.0596 118.221Z" fill="url(#paint0_linear_962_1727)"/>
<path d="M93.0596 118.221C100.952 99.387 127.638 99.387 135.531 118.221L184.311 234.624C190.669 249.796 179.526 266.548 163.075 266.548H65.5152C49.0649 266.548 37.9214 249.796 44.2794 234.624L93.0596 118.221Z" fill="url(#paint1_radial_962_1727)"/>
<rect x="199" y="189.743" width="170" height="170" rx="85" transform="rotate(180 199 189.743)" fill="white"/>
<rect x="199" y="189.743" width="170" height="170" rx="85" transform="rotate(180 199 189.743)" fill="url(#paint2_linear_962_1727)"/>
<rect x="199" y="189.743" width="170" height="170" rx="85" transform="rotate(180 199 189.743)" fill="url(#paint3_radial_962_1727)"/>
<g filter="url(#filter0_i_962_1727)">
<ellipse cx="96" cy="134.5" rx="10" ry="10.5" fill="#D9D9D9"/>
</g>
<g filter="url(#filter1_i_962_1727)">
<ellipse cx="132" cy="134.5" rx="10" ry="10.5" fill="#D9D9D9"/>
</g>
</g>
<defs>
<filter id="filter0_i_962_1727" x="86" y="124" width="20" height="29.3476" filterUnits="userSpaceOnUse" color-interpolation-filters="sRGB">
<feFlood flood-opacity="0" result="BackgroundImageFix"/>
<feBlend mode="normal" in="SourceGraphic" in2="BackgroundImageFix" result="shape"/>
<feColorMatrix in="SourceAlpha" type="matrix" values="0 0 0 0 0 0 0 0 0 0 0 0 0 0 0 0 0 0 127 0" result="hardAlpha"/>
<feOffset dy="8.34758"/>
<feGaussianBlur stdDeviation="10.1363"/>
<feComposite in2="hardAlpha" operator="arithmetic" k2="-1" k3="1"/>
<feColorMatrix type="matrix" values="0 0 0 0 0 0 0 0 0 0 0 0 0 0 0 0 0 0 0.25 0"/>
<feBlend mode="normal" in2="shape" result="effect1_innerShadow_962_1727"/>
</filter>
<filter id="filter1_i_962_1727" x="122" y="124" width="20" height="29.3476" filterUnits="userSpaceOnUse" color-interpolation-filters="sRGB">
<feFlood flood-opacity="0" result="BackgroundImageFix"/>
<feBlend mode="normal" in="SourceGraphic" in2="BackgroundImageFix" result="shape"/>
<feColorMatrix in="SourceAlpha" type="matrix" values="0 0 0 0 0 0 0 0 0 0 0 0 0 0 0 0 0 0 127 0" result="hardAlpha"/>
<feOffset dy="8.34758"/>
<feGaussianBlur stdDeviation="10.1363"/>
<feComposite in2="hardAlpha" operator="arithmetic" k2="-1" k3="1"/>
<feColorMatrix type="matrix" values="0 0 0 0 0 0 0 0 0 0 0 0 0 0 0 0 0 0 0.25 0"/>
<feBlend mode="normal" in2="shape" result="effect1_innerShadow_962_1727"/>
</filter>
<linearGradient id="paint0_linear_962_1727" x1="245.668" y1="225.518" x2="53.5155" y2="215.355" gradientUnits="userSpaceOnUse">
<stop/>
<stop offset="1" stop-opacity="0"/>
</linearGradient>
<radialGradient id="paint1_radial_962_1727" cx="0" cy="0" r="1" gradientUnits="userSpaceOnUse" gradientTransform="translate(176.604 303.226) rotate(-119.959) scale(183.753 163.248)">
<stop stop-color="white"/>
<stop offset="0.671875" stop-color="white" stop-opacity="0"/>
</radialGradient>
<linearGradient id="paint2_linear_962_1727" x1="284" y1="189.743" x2="284" y2="359.743" gradientUnits="userSpaceOnUse">
<stop stop-color="#727272"/>
<stop offset="1" stop-opacity="0"/>
</linearGradient>
<radialGradient id="paint3_radial_962_1727" cx="0" cy="0" r="1" gradientUnits="userSpaceOnUse" gradientTransform="translate(339 340.743) rotate(-128.454) scale(130.25)">
<stop stop-color="white"/>
<stop offset="0.671875" stop-color="white" stop-opacity="0"/>
</radialGradient>
<clipPath id="clip0_962_1727">
<rect width="236" height="236" fill="white"/>
</clipPath>
</defs>
</svg>
