<svg width="236" height="236" viewBox="0 0 236 236" fill="none" xmlns="http://www.w3.org/2000/svg">
<g clip-path="url(#clip0_963_1779)">
<rect width="236" height="236" fill="#E8E8EB"/>
<path d="M93.0596 118.221C100.952 99.387 127.638 99.387 135.531 118.221L184.311 234.624C190.669 249.796 179.526 266.548 163.075 266.548H65.5152C49.0649 266.548 37.9214 249.796 44.2794 234.624L93.0596 118.221Z" fill="white"/>
<path d="M93.0596 118.221C100.952 99.387 127.638 99.387 135.531 118.221L184.311 234.624C190.669 249.796 179.526 266.548 163.075 266.548H65.5152C49.0649 266.548 37.9214 249.796 44.2794 234.624L93.0596 118.221Z" fill="url(#paint0_linear_963_1779)"/>
<path d="M93.0596 118.221C100.952 99.387 127.638 99.387 135.531 118.221L184.311 234.624C190.669 249.796 179.526 266.548 163.075 266.548H65.5152C49.0649 266.548 37.9214 249.796 44.2794 234.624L93.0596 118.221Z" fill="url(#paint1_radial_963_1779)"/>
<rect x="219" y="162" width="210" height="145" rx="72.5" transform="rotate(180 219 162)" fill="white"/>
<rect x="219" y="162" width="210" height="145" rx="72.5" transform="rotate(180 219 162)" fill="url(#paint2_linear_963_1779)"/>
<rect x="219" y="162" width="210" height="145" rx="72.5" transform="rotate(180 219 162)" fill="url(#paint3_radial_963_1779)"/>
<rect x="185" y="210" width="140" height="170" rx="70" transform="rotate(180 185 210)" fill="white"/>
<rect x="185" y="210" width="140" height="170" rx="70" transform="rotate(180 185 210)" fill="url(#paint4_linear_963_1779)"/>
<rect x="185" y="210" width="140" height="170" rx="70" transform="rotate(180 185 210)" fill="url(#paint5_radial_963_1779)"/>
<g filter="url(#filter0_i_963_1779)">
<ellipse cx="82" cy="128.5" rx="10" ry="10.5" fill="#D9D9D9"/>
</g>
<g filter="url(#filter1_i_963_1779)">
<ellipse cx="150" cy="128.5" rx="10" ry="10.5" fill="#D9D9D9"/>
</g>
<g filter="url(#filter2_i_963_1779)">
<path d="M133.007 145.244C133.007 152.289 125.393 158 116 158C106.607 158 98.9927 152.289 98.9927 145.244C98.9927 138.2 106.607 139.03 116 139.03C125.393 139.03 133.007 138.2 133.007 145.244Z" fill="#D9D9D9"/>
</g>
</g>
<defs>
<filter id="filter0_i_963_1779" x="72" y="118" width="20" height="29.3476" filterUnits="userSpaceOnUse" color-interpolation-filters="sRGB">
<feFlood flood-opacity="0" result="BackgroundImageFix"/>
<feBlend mode="normal" in="SourceGraphic" in2="BackgroundImageFix" result="shape"/>
<feColorMatrix in="SourceAlpha" type="matrix" values="0 0 0 0 0 0 0 0 0 0 0 0 0 0 0 0 0 0 127 0" result="hardAlpha"/>
<feOffset dy="8.34758"/>
<feGaussianBlur stdDeviation="10.1363"/>
<feComposite in2="hardAlpha" operator="arithmetic" k2="-1" k3="1"/>
<feColorMatrix type="matrix" values="0 0 0 0 0 0 0 0 0 0 0 0 0 0 0 0 0 0 0.25 0"/>
<feBlend mode="normal" in2="shape" result="effect1_innerShadow_963_1779"/>
</filter>
<filter id="filter1_i_963_1779" x="140" y="118" width="20" height="29.3476" filterUnits="userSpaceOnUse" color-interpolation-filters="sRGB">
<feFlood flood-opacity="0" result="BackgroundImageFix"/>
<feBlend mode="normal" in="SourceGraphic" in2="BackgroundImageFix" result="shape"/>
<feColorMatrix in="SourceAlpha" type="matrix" values="0 0 0 0 0 0 0 0 0 0 0 0 0 0 0 0 0 0 127 0" result="hardAlpha"/>
<feOffset dy="8.34758"/>
<feGaussianBlur stdDeviation="10.1363"/>
<feComposite in2="hardAlpha" operator="arithmetic" k2="-1" k3="1"/>
<feColorMatrix type="matrix" values="0 0 0 0 0 0 0 0 0 0 0 0 0 0 0 0 0 0 0.25 0"/>
<feBlend mode="normal" in2="shape" result="effect1_innerShadow_963_1779"/>
</filter>
<filter id="filter2_i_963_1779" x="98.9927" y="139" width="34.0148" height="24.4604" filterUnits="userSpaceOnUse" color-interpolation-filters="sRGB">
<feFlood flood-opacity="0" result="BackgroundImageFix"/>
<feBlend mode="normal" in="SourceGraphic" in2="BackgroundImageFix" result="shape"/>
<feColorMatrix in="SourceAlpha" type="matrix" values="0 0 0 0 0 0 0 0 0 0 0 0 0 0 0 0 0 0 127 0" result="hardAlpha"/>
<feOffset dy="5.4604"/>
<feGaussianBlur stdDeviation="6.63049"/>
<feComposite in2="hardAlpha" operator="arithmetic" k2="-1" k3="1"/>
<feColorMatrix type="matrix" values="0 0 0 0 0 0 0 0 0 0 0 0 0 0 0 0 0 0 0.25 0"/>
<feBlend mode="normal" in2="shape" result="effect1_innerShadow_963_1779"/>
</filter>
<linearGradient id="paint0_linear_963_1779" x1="245.668" y1="225.518" x2="53.5155" y2="215.355" gradientUnits="userSpaceOnUse">
<stop/>
<stop offset="1" stop-opacity="0"/>
</linearGradient>
<radialGradient id="paint1_radial_963_1779" cx="0" cy="0" r="1" gradientUnits="userSpaceOnUse" gradientTransform="translate(176.604 303.226) rotate(-119.959) scale(183.753 163.248)">
<stop stop-color="white"/>
<stop offset="0.671875" stop-color="white" stop-opacity="0"/>
</radialGradient>
<linearGradient id="paint2_linear_963_1779" x1="324" y1="162" x2="324" y2="307" gradientUnits="userSpaceOnUse">
<stop stop-color="#727272"/>
<stop offset="1" stop-opacity="0"/>
</linearGradient>
<radialGradient id="paint3_radial_963_1779" cx="0" cy="0" r="1" gradientUnits="userSpaceOnUse" gradientTransform="translate(391.941 290.794) rotate(-138.993) scale(132.592 134.811)">
<stop stop-color="white"/>
<stop offset="0.671875" stop-color="white" stop-opacity="0"/>
</radialGradient>
<linearGradient id="paint4_linear_963_1779" x1="255" y1="210" x2="255" y2="380" gradientUnits="userSpaceOnUse">
<stop stop-color="#727272"/>
<stop offset="1" stop-opacity="0"/>
</linearGradient>
<radialGradient id="paint5_radial_963_1779" cx="0" cy="0" r="1" gradientUnits="userSpaceOnUse" gradientTransform="translate(300.294 361) rotate(-123.184) scale(121.876 114.635)">
<stop stop-color="white"/>
<stop offset="0.671875" stop-color="white" stop-opacity="0"/>
</radialGradient>
<clipPath id="clip0_963_1779">
<rect width="236" height="236" fill="white"/>
</clipPath>
</defs>
</svg>
