<svg width="236" height="236" viewBox="0 0 236 236" fill="none" xmlns="http://www.w3.org/2000/svg">
<g clip-path="url(#clip0_963_1799)">
<rect width="236" height="236" fill="#E8E8EB"/>
<rect x="177" y="126" width="19" height="60" rx="9.5" fill="white"/>
<rect x="177" y="126" width="19" height="60" rx="9.5" fill="url(#paint0_linear_963_1799)"/>
<rect x="177" y="126" width="19" height="60" rx="9.5" fill="url(#paint1_radial_963_1799)"/>
<rect x="35" y="128" width="19" height="60" rx="9.5" fill="white"/>
<rect x="35" y="128" width="19" height="60" rx="9.5" fill="url(#paint2_linear_963_1799)"/>
<rect x="35" y="128" width="19" height="60" rx="9.5" fill="url(#paint3_radial_963_1799)"/>
<path d="M93.0596 118.222C100.952 99.3871 127.638 99.3871 135.531 118.222L184.311 234.624C190.669 249.796 179.526 266.548 163.075 266.548H65.5152C49.0649 266.548 37.9214 249.796 44.2794 234.624L93.0596 118.222Z" fill="white"/>
<path d="M93.0596 118.222C100.952 99.3871 127.638 99.3871 135.531 118.222L184.311 234.624C190.669 249.796 179.526 266.548 163.075 266.548H65.5152C49.0649 266.548 37.9214 249.796 44.2794 234.624L93.0596 118.222Z" fill="url(#paint4_linear_963_1799)"/>
<path d="M93.0596 118.222C100.952 99.3871 127.638 99.3871 135.531 118.222L184.311 234.624C190.669 249.796 179.526 266.548 163.075 266.548H65.5152C49.0649 266.548 37.9214 249.796 44.2794 234.624L93.0596 118.222Z" fill="url(#paint5_radial_963_1799)"/>
<rect x="185" y="210" width="140" height="170" rx="70" transform="rotate(180 185 210)" fill="white"/>
<rect x="185" y="210" width="140" height="170" rx="70" transform="rotate(180 185 210)" fill="url(#paint6_linear_963_1799)"/>
<rect x="185" y="210" width="140" height="170" rx="70" transform="rotate(180 185 210)" fill="url(#paint7_radial_963_1799)"/>
<g filter="url(#filter0_i_963_1799)">
<ellipse cx="96" cy="135.5" rx="10" ry="10.5" fill="#D9D9D9"/>
</g>
<g filter="url(#filter1_i_963_1799)">
<ellipse cx="132" cy="135.5" rx="10" ry="10.5" fill="#D9D9D9"/>
</g>
<rect x="186" y="73" width="23" height="25" rx="11.5" transform="rotate(180 186 73)" fill="white"/>
<rect x="186" y="73" width="23" height="25" rx="11.5" transform="rotate(180 186 73)" fill="url(#paint8_linear_963_1799)"/>
<rect x="186" y="73" width="23" height="25" rx="11.5" transform="rotate(180 186 73)" fill="url(#paint9_radial_963_1799)"/>
<rect x="174" y="60" width="23" height="25" rx="11.5" transform="rotate(180 174 60)" fill="white"/>
<rect x="174" y="60" width="23" height="25" rx="11.5" transform="rotate(180 174 60)" fill="url(#paint10_linear_963_1799)"/>
<rect x="174" y="60" width="23" height="25" rx="11.5" transform="rotate(180 174 60)" fill="url(#paint11_radial_963_1799)"/>
<rect x="146" y="60" width="23" height="25" rx="11.5" transform="rotate(180 146 60)" fill="white"/>
<rect x="146" y="60" width="23" height="25" rx="11.5" transform="rotate(180 146 60)" fill="url(#paint12_linear_963_1799)"/>
<rect x="146" y="60" width="23" height="25" rx="11.5" transform="rotate(180 146 60)" fill="url(#paint13_radial_963_1799)"/>
<rect x="120" y="65" width="23" height="25" rx="11.5" transform="rotate(180 120 65)" fill="white"/>
<rect x="120" y="65" width="23" height="25" rx="11.5" transform="rotate(180 120 65)" fill="url(#paint14_linear_963_1799)"/>
<rect x="120" y="65" width="23" height="25" rx="11.5" transform="rotate(180 120 65)" fill="url(#paint15_radial_963_1799)"/>
<rect x="94" y="75" width="23" height="25" rx="11.5" transform="rotate(180 94 75)" fill="white"/>
<rect x="94" y="75" width="23" height="25" rx="11.5" transform="rotate(180 94 75)" fill="url(#paint16_linear_963_1799)"/>
<rect x="94" y="75" width="23" height="25" rx="11.5" transform="rotate(180 94 75)" fill="url(#paint17_radial_963_1799)"/>
<rect x="80" y="80" width="23" height="25" rx="11.5" transform="rotate(180 80 80)" fill="white"/>
<rect x="80" y="80" width="23" height="25" rx="11.5" transform="rotate(180 80 80)" fill="url(#paint18_linear_963_1799)"/>
<rect x="80" y="80" width="23" height="25" rx="11.5" transform="rotate(180 80 80)" fill="url(#paint19_radial_963_1799)"/>
<rect x="177" y="61" width="23" height="25" rx="11.5" transform="rotate(180 177 61)" fill="white"/>
<rect x="177" y="61" width="23" height="25" rx="11.5" transform="rotate(180 177 61)" fill="url(#paint20_linear_963_1799)"/>
<rect x="177" y="61" width="23" height="25" rx="11.5" transform="rotate(180 177 61)" fill="url(#paint21_radial_963_1799)"/>
<rect x="157" y="51" width="23" height="25" rx="11.5" transform="rotate(180 157 51)" fill="white"/>
<rect x="157" y="51" width="23" height="25" rx="11.5" transform="rotate(180 157 51)" fill="url(#paint22_linear_963_1799)"/>
<rect x="157" y="51" width="23" height="25" rx="11.5" transform="rotate(180 157 51)" fill="url(#paint23_radial_963_1799)"/>
<rect x="126" y="48" width="23" height="25" rx="11.5" transform="rotate(180 126 48)" fill="white"/>
<rect x="126" y="48" width="23" height="25" rx="11.5" transform="rotate(180 126 48)" fill="url(#paint24_linear_963_1799)"/>
<rect x="126" y="48" width="23" height="25" rx="11.5" transform="rotate(180 126 48)" fill="url(#paint25_radial_963_1799)"/>
<rect x="100" y="53" width="23" height="25" rx="11.5" transform="rotate(180 100 53)" fill="white"/>
<rect x="100" y="53" width="23" height="25" rx="11.5" transform="rotate(180 100 53)" fill="url(#paint26_linear_963_1799)"/>
<rect x="100" y="53" width="23" height="25" rx="11.5" transform="rotate(180 100 53)" fill="url(#paint27_radial_963_1799)"/>
<rect x="74" y="63" width="23" height="25" rx="11.5" transform="rotate(180 74 63)" fill="white"/>
<rect x="74" y="63" width="23" height="25" rx="11.5" transform="rotate(180 74 63)" fill="url(#paint28_linear_963_1799)"/>
<rect x="74" y="63" width="23" height="25" rx="11.5" transform="rotate(180 74 63)" fill="url(#paint29_radial_963_1799)"/>
<rect x="165" y="69" width="23" height="25" rx="11.5" transform="rotate(180 165 69)" fill="white"/>
<rect x="165" y="69" width="23" height="25" rx="11.5" transform="rotate(180 165 69)" fill="url(#paint30_linear_963_1799)"/>
<rect x="165" y="69" width="23" height="25" rx="11.5" transform="rotate(180 165 69)" fill="url(#paint31_radial_963_1799)"/>
<rect x="142" y="56" width="23" height="25" rx="11.5" transform="rotate(180 142 56)" fill="white"/>
<rect x="142" y="56" width="23" height="25" rx="11.5" transform="rotate(180 142 56)" fill="url(#paint32_linear_963_1799)"/>
<rect x="142" y="56" width="23" height="25" rx="11.5" transform="rotate(180 142 56)" fill="url(#paint33_radial_963_1799)"/>
<rect x="114" y="56" width="23" height="25" rx="11.5" transform="rotate(180 114 56)" fill="white"/>
<rect x="114" y="56" width="23" height="25" rx="11.5" transform="rotate(180 114 56)" fill="url(#paint34_linear_963_1799)"/>
<rect x="114" y="56" width="23" height="25" rx="11.5" transform="rotate(180 114 56)" fill="url(#paint35_radial_963_1799)"/>
<rect x="87" y="58" width="23" height="25" rx="11.5" transform="rotate(180 87 58)" fill="white"/>
<rect x="87" y="58" width="23" height="25" rx="11.5" transform="rotate(180 87 58)" fill="url(#paint36_linear_963_1799)"/>
<rect x="87" y="58" width="23" height="25" rx="11.5" transform="rotate(180 87 58)" fill="url(#paint37_radial_963_1799)"/>
<rect x="58" y="73" width="23" height="25" rx="11.5" transform="rotate(180 58 73)" fill="white"/>
<rect x="58" y="73" width="23" height="25" rx="11.5" transform="rotate(180 58 73)" fill="url(#paint38_linear_963_1799)"/>
<rect x="58" y="73" width="23" height="25" rx="11.5" transform="rotate(180 58 73)" fill="url(#paint39_radial_963_1799)"/>
<rect x="53" y="125" width="23" height="25" rx="11.5" transform="rotate(180 53 125)" fill="white"/>
<rect x="53" y="125" width="23" height="25" rx="11.5" transform="rotate(180 53 125)" fill="url(#paint40_linear_963_1799)"/>
<rect x="53" y="125" width="23" height="25" rx="11.5" transform="rotate(180 53 125)" fill="url(#paint41_radial_963_1799)"/>
<rect x="177" y="73" width="23" height="25" rx="11.5" transform="rotate(180 177 73)" fill="white"/>
<rect x="177" y="73" width="23" height="25" rx="11.5" transform="rotate(180 177 73)" fill="url(#paint42_linear_963_1799)"/>
<rect x="177" y="73" width="23" height="25" rx="11.5" transform="rotate(180 177 73)" fill="url(#paint43_radial_963_1799)"/>
<rect x="155" y="68" width="23" height="25" rx="11.5" transform="rotate(180 155 68)" fill="white"/>
<rect x="155" y="68" width="23" height="25" rx="11.5" transform="rotate(180 155 68)" fill="url(#paint44_linear_963_1799)"/>
<rect x="155" y="68" width="23" height="25" rx="11.5" transform="rotate(180 155 68)" fill="url(#paint45_radial_963_1799)"/>
<rect x="136" y="69" width="23" height="25" rx="11.5" transform="rotate(180 136 69)" fill="white"/>
<rect x="136" y="69" width="23" height="25" rx="11.5" transform="rotate(180 136 69)" fill="url(#paint46_linear_963_1799)"/>
<rect x="136" y="69" width="23" height="25" rx="11.5" transform="rotate(180 136 69)" fill="url(#paint47_radial_963_1799)"/>
<rect x="117" y="70" width="23" height="25" rx="11.5" transform="rotate(180 117 70)" fill="white"/>
<rect x="117" y="70" width="23" height="25" rx="11.5" transform="rotate(180 117 70)" fill="url(#paint48_linear_963_1799)"/>
<rect x="117" y="70" width="23" height="25" rx="11.5" transform="rotate(180 117 70)" fill="url(#paint49_radial_963_1799)"/>
<rect x="101" y="73" width="23" height="25" rx="11.5" transform="rotate(180 101 73)" fill="white"/>
<rect x="101" y="73" width="23" height="25" rx="11.5" transform="rotate(180 101 73)" fill="url(#paint50_linear_963_1799)"/>
<rect x="101" y="73" width="23" height="25" rx="11.5" transform="rotate(180 101 73)" fill="url(#paint51_radial_963_1799)"/>
<rect x="75" y="83" width="23" height="25" rx="11.5" transform="rotate(180 75 83)" fill="white"/>
<rect x="75" y="83" width="23" height="25" rx="11.5" transform="rotate(180 75 83)" fill="url(#paint52_linear_963_1799)"/>
<rect x="75" y="83" width="23" height="25" rx="11.5" transform="rotate(180 75 83)" fill="url(#paint53_radial_963_1799)"/>
<rect x="45" y="88" width="23" height="25" rx="11.5" transform="rotate(180 45 88)" fill="white"/>
<rect x="45" y="88" width="23" height="25" rx="11.5" transform="rotate(180 45 88)" fill="url(#paint54_linear_963_1799)"/>
<rect x="45" y="88" width="23" height="25" rx="11.5" transform="rotate(180 45 88)" fill="url(#paint55_radial_963_1799)"/>
<rect x="61" y="88" width="23" height="25" rx="11.5" transform="rotate(180 61 88)" fill="white"/>
<rect x="61" y="88" width="23" height="25" rx="11.5" transform="rotate(180 61 88)" fill="url(#paint56_linear_963_1799)"/>
<rect x="61" y="88" width="23" height="25" rx="11.5" transform="rotate(180 61 88)" fill="url(#paint57_radial_963_1799)"/>
<rect x="47" y="106" width="23" height="25" rx="11.5" transform="rotate(180 47 106)" fill="white"/>
<rect x="47" y="106" width="23" height="25" rx="11.5" transform="rotate(180 47 106)" fill="url(#paint58_linear_963_1799)"/>
<rect x="47" y="106" width="23" height="25" rx="11.5" transform="rotate(180 47 106)" fill="url(#paint59_radial_963_1799)"/>
<rect x="85" y="81" width="23" height="25" rx="11.5" transform="rotate(180 85 81)" fill="white"/>
<rect x="85" y="81" width="23" height="25" rx="11.5" transform="rotate(180 85 81)" fill="url(#paint60_linear_963_1799)"/>
<rect x="85" y="81" width="23" height="25" rx="11.5" transform="rotate(180 85 81)" fill="url(#paint61_radial_963_1799)"/>
<rect x="73" y="95" width="23" height="25" rx="11.5" transform="rotate(180 73 95)" fill="white"/>
<rect x="73" y="95" width="23" height="25" rx="11.5" transform="rotate(180 73 95)" fill="url(#paint62_linear_963_1799)"/>
<rect x="73" y="95" width="23" height="25" rx="11.5" transform="rotate(180 73 95)" fill="url(#paint63_radial_963_1799)"/>
<rect x="62" y="108" width="23" height="25" rx="11.5" transform="rotate(180 62 108)" fill="white"/>
<rect x="62" y="108" width="23" height="25" rx="11.5" transform="rotate(180 62 108)" fill="url(#paint64_linear_963_1799)"/>
<rect x="62" y="108" width="23" height="25" rx="11.5" transform="rotate(180 62 108)" fill="url(#paint65_radial_963_1799)"/>
</g>
<defs>
<filter id="filter0_i_963_1799" x="86" y="125" width="20" height="29.3476" filterUnits="userSpaceOnUse" color-interpolation-filters="sRGB">
<feFlood flood-opacity="0" result="BackgroundImageFix"/>
<feBlend mode="normal" in="SourceGraphic" in2="BackgroundImageFix" result="shape"/>
<feColorMatrix in="SourceAlpha" type="matrix" values="0 0 0 0 0 0 0 0 0 0 0 0 0 0 0 0 0 0 127 0" result="hardAlpha"/>
<feOffset dy="8.34758"/>
<feGaussianBlur stdDeviation="10.1363"/>
<feComposite in2="hardAlpha" operator="arithmetic" k2="-1" k3="1"/>
<feColorMatrix type="matrix" values="0 0 0 0 0 0 0 0 0 0 0 0 0 0 0 0 0 0 0.25 0"/>
<feBlend mode="normal" in2="shape" result="effect1_innerShadow_963_1799"/>
</filter>
<filter id="filter1_i_963_1799" x="122" y="125" width="20" height="29.3476" filterUnits="userSpaceOnUse" color-interpolation-filters="sRGB">
<feFlood flood-opacity="0" result="BackgroundImageFix"/>
<feBlend mode="normal" in="SourceGraphic" in2="BackgroundImageFix" result="shape"/>
<feColorMatrix in="SourceAlpha" type="matrix" values="0 0 0 0 0 0 0 0 0 0 0 0 0 0 0 0 0 0 127 0" result="hardAlpha"/>
<feOffset dy="8.34758"/>
<feGaussianBlur stdDeviation="10.1363"/>
<feComposite in2="hardAlpha" operator="arithmetic" k2="-1" k3="1"/>
<feColorMatrix type="matrix" values="0 0 0 0 0 0 0 0 0 0 0 0 0 0 0 0 0 0 0.25 0"/>
<feBlend mode="normal" in2="shape" result="effect1_innerShadow_963_1799"/>
</filter>
<linearGradient id="paint0_linear_963_1799" x1="186.5" y1="126" x2="186.5" y2="186" gradientUnits="userSpaceOnUse">
<stop stop-color="#727272"/>
<stop offset="1" stop-opacity="0"/>
</linearGradient>
<radialGradient id="paint1_radial_963_1799" cx="0" cy="0" r="1" gradientUnits="userSpaceOnUse" gradientTransform="translate(192.647 179.294) rotate(-104.116) scale(37.1208 18.0278)">
<stop stop-color="white"/>
<stop offset="0.671875" stop-color="white" stop-opacity="0"/>
</radialGradient>
<linearGradient id="paint2_linear_963_1799" x1="44.5" y1="128" x2="44.5" y2="188" gradientUnits="userSpaceOnUse">
<stop stop-color="#727272"/>
<stop offset="1" stop-opacity="0"/>
</linearGradient>
<radialGradient id="paint3_radial_963_1799" cx="0" cy="0" r="1" gradientUnits="userSpaceOnUse" gradientTransform="translate(50.6471 181.294) rotate(-104.116) scale(37.1208 18.0278)">
<stop stop-color="white"/>
<stop offset="0.671875" stop-color="white" stop-opacity="0"/>
</radialGradient>
<linearGradient id="paint4_linear_963_1799" x1="245.668" y1="225.518" x2="53.5155" y2="215.356" gradientUnits="userSpaceOnUse">
<stop/>
<stop offset="1" stop-opacity="0"/>
</linearGradient>
<radialGradient id="paint5_radial_963_1799" cx="0" cy="0" r="1" gradientUnits="userSpaceOnUse" gradientTransform="translate(176.604 303.226) rotate(-119.959) scale(183.753 163.248)">
<stop stop-color="white"/>
<stop offset="0.671875" stop-color="white" stop-opacity="0"/>
</radialGradient>
<linearGradient id="paint6_linear_963_1799" x1="255" y1="210" x2="255" y2="380" gradientUnits="userSpaceOnUse">
<stop stop-color="#727272"/>
<stop offset="1" stop-opacity="0"/>
</linearGradient>
<radialGradient id="paint7_radial_963_1799" cx="0" cy="0" r="1" gradientUnits="userSpaceOnUse" gradientTransform="translate(300.294 361) rotate(-123.184) scale(121.876 114.635)">
<stop stop-color="white"/>
<stop offset="0.671875" stop-color="white" stop-opacity="0"/>
</radialGradient>
<linearGradient id="paint8_linear_963_1799" x1="197.5" y1="73" x2="197.5" y2="98" gradientUnits="userSpaceOnUse">
<stop stop-color="#727272"/>
<stop offset="1" stop-opacity="0"/>
</linearGradient>
<radialGradient id="paint9_radial_963_1799" cx="0" cy="0" r="1" gradientUnits="userSpaceOnUse" gradientTransform="translate(204.941 95.2059) rotate(-126.151) scale(18.5768 18.17)">
<stop stop-color="white"/>
<stop offset="0.671875" stop-color="white" stop-opacity="0"/>
</radialGradient>
<linearGradient id="paint10_linear_963_1799" x1="185.5" y1="60" x2="185.5" y2="85" gradientUnits="userSpaceOnUse">
<stop stop-color="#727272"/>
<stop offset="1" stop-opacity="0"/>
</linearGradient>
<radialGradient id="paint11_radial_963_1799" cx="0" cy="0" r="1" gradientUnits="userSpaceOnUse" gradientTransform="translate(192.941 82.2059) rotate(-126.151) scale(18.5768 18.17)">
<stop stop-color="white"/>
<stop offset="0.671875" stop-color="white" stop-opacity="0"/>
</radialGradient>
<linearGradient id="paint12_linear_963_1799" x1="157.5" y1="60" x2="157.5" y2="85" gradientUnits="userSpaceOnUse">
<stop stop-color="#727272"/>
<stop offset="1" stop-opacity="0"/>
</linearGradient>
<radialGradient id="paint13_radial_963_1799" cx="0" cy="0" r="1" gradientUnits="userSpaceOnUse" gradientTransform="translate(164.941 82.2059) rotate(-126.151) scale(18.5768 18.17)">
<stop stop-color="white"/>
<stop offset="0.671875" stop-color="white" stop-opacity="0"/>
</radialGradient>
<linearGradient id="paint14_linear_963_1799" x1="131.5" y1="65" x2="131.5" y2="90" gradientUnits="userSpaceOnUse">
<stop stop-color="#727272"/>
<stop offset="1" stop-opacity="0"/>
</linearGradient>
<radialGradient id="paint15_radial_963_1799" cx="0" cy="0" r="1" gradientUnits="userSpaceOnUse" gradientTransform="translate(138.941 87.2059) rotate(-126.151) scale(18.5768 18.17)">
<stop stop-color="white"/>
<stop offset="0.671875" stop-color="white" stop-opacity="0"/>
</radialGradient>
<linearGradient id="paint16_linear_963_1799" x1="105.5" y1="75" x2="105.5" y2="100" gradientUnits="userSpaceOnUse">
<stop stop-color="#727272"/>
<stop offset="1" stop-opacity="0"/>
</linearGradient>
<radialGradient id="paint17_radial_963_1799" cx="0" cy="0" r="1" gradientUnits="userSpaceOnUse" gradientTransform="translate(112.941 97.2059) rotate(-126.151) scale(18.5768 18.17)">
<stop stop-color="white"/>
<stop offset="0.671875" stop-color="white" stop-opacity="0"/>
</radialGradient>
<linearGradient id="paint18_linear_963_1799" x1="91.5" y1="80" x2="91.5" y2="105" gradientUnits="userSpaceOnUse">
<stop stop-color="#727272"/>
<stop offset="1" stop-opacity="0"/>
</linearGradient>
<radialGradient id="paint19_radial_963_1799" cx="0" cy="0" r="1" gradientUnits="userSpaceOnUse" gradientTransform="translate(98.9412 102.206) rotate(-126.151) scale(18.5768 18.17)">
<stop stop-color="white"/>
<stop offset="0.671875" stop-color="white" stop-opacity="0"/>
</radialGradient>
<linearGradient id="paint20_linear_963_1799" x1="188.5" y1="61" x2="188.5" y2="86" gradientUnits="userSpaceOnUse">
<stop stop-color="#727272"/>
<stop offset="1" stop-opacity="0"/>
</linearGradient>
<radialGradient id="paint21_radial_963_1799" cx="0" cy="0" r="1" gradientUnits="userSpaceOnUse" gradientTransform="translate(195.941 83.2059) rotate(-126.151) scale(18.5768 18.17)">
<stop stop-color="white"/>
<stop offset="0.671875" stop-color="white" stop-opacity="0"/>
</radialGradient>
<linearGradient id="paint22_linear_963_1799" x1="168.5" y1="51" x2="168.5" y2="76" gradientUnits="userSpaceOnUse">
<stop stop-color="#727272"/>
<stop offset="1" stop-opacity="0"/>
</linearGradient>
<radialGradient id="paint23_radial_963_1799" cx="0" cy="0" r="1" gradientUnits="userSpaceOnUse" gradientTransform="translate(175.941 73.2059) rotate(-126.151) scale(18.5768 18.17)">
<stop stop-color="white"/>
<stop offset="0.671875" stop-color="white" stop-opacity="0"/>
</radialGradient>
<linearGradient id="paint24_linear_963_1799" x1="137.5" y1="48" x2="137.5" y2="73" gradientUnits="userSpaceOnUse">
<stop stop-color="#727272"/>
<stop offset="1" stop-opacity="0"/>
</linearGradient>
<radialGradient id="paint25_radial_963_1799" cx="0" cy="0" r="1" gradientUnits="userSpaceOnUse" gradientTransform="translate(144.941 70.2059) rotate(-126.151) scale(18.5768 18.17)">
<stop stop-color="white"/>
<stop offset="0.671875" stop-color="white" stop-opacity="0"/>
</radialGradient>
<linearGradient id="paint26_linear_963_1799" x1="111.5" y1="53" x2="111.5" y2="78" gradientUnits="userSpaceOnUse">
<stop stop-color="#727272"/>
<stop offset="1" stop-opacity="0"/>
</linearGradient>
<radialGradient id="paint27_radial_963_1799" cx="0" cy="0" r="1" gradientUnits="userSpaceOnUse" gradientTransform="translate(118.941 75.2059) rotate(-126.151) scale(18.5768 18.17)">
<stop stop-color="white"/>
<stop offset="0.671875" stop-color="white" stop-opacity="0"/>
</radialGradient>
<linearGradient id="paint28_linear_963_1799" x1="85.5" y1="63" x2="85.5" y2="88" gradientUnits="userSpaceOnUse">
<stop stop-color="#727272"/>
<stop offset="1" stop-opacity="0"/>
</linearGradient>
<radialGradient id="paint29_radial_963_1799" cx="0" cy="0" r="1" gradientUnits="userSpaceOnUse" gradientTransform="translate(92.9412 85.2059) rotate(-126.151) scale(18.5768 18.17)">
<stop stop-color="white"/>
<stop offset="0.671875" stop-color="white" stop-opacity="0"/>
</radialGradient>
<linearGradient id="paint30_linear_963_1799" x1="176.5" y1="69" x2="176.5" y2="94" gradientUnits="userSpaceOnUse">
<stop stop-color="#727272"/>
<stop offset="1" stop-opacity="0"/>
</linearGradient>
<radialGradient id="paint31_radial_963_1799" cx="0" cy="0" r="1" gradientUnits="userSpaceOnUse" gradientTransform="translate(183.941 91.2059) rotate(-126.151) scale(18.5768 18.17)">
<stop stop-color="white"/>
<stop offset="0.671875" stop-color="white" stop-opacity="0"/>
</radialGradient>
<linearGradient id="paint32_linear_963_1799" x1="153.5" y1="56" x2="153.5" y2="81" gradientUnits="userSpaceOnUse">
<stop stop-color="#727272"/>
<stop offset="1" stop-opacity="0"/>
</linearGradient>
<radialGradient id="paint33_radial_963_1799" cx="0" cy="0" r="1" gradientUnits="userSpaceOnUse" gradientTransform="translate(160.941 78.2059) rotate(-126.151) scale(18.5768 18.17)">
<stop stop-color="white"/>
<stop offset="0.671875" stop-color="white" stop-opacity="0"/>
</radialGradient>
<linearGradient id="paint34_linear_963_1799" x1="125.5" y1="56" x2="125.5" y2="81" gradientUnits="userSpaceOnUse">
<stop stop-color="#727272"/>
<stop offset="1" stop-opacity="0"/>
</linearGradient>
<radialGradient id="paint35_radial_963_1799" cx="0" cy="0" r="1" gradientUnits="userSpaceOnUse" gradientTransform="translate(132.941 78.2059) rotate(-126.151) scale(18.5768 18.17)">
<stop stop-color="white"/>
<stop offset="0.671875" stop-color="white" stop-opacity="0"/>
</radialGradient>
<linearGradient id="paint36_linear_963_1799" x1="98.5" y1="58" x2="98.5" y2="83" gradientUnits="userSpaceOnUse">
<stop stop-color="#727272"/>
<stop offset="1" stop-opacity="0"/>
</linearGradient>
<radialGradient id="paint37_radial_963_1799" cx="0" cy="0" r="1" gradientUnits="userSpaceOnUse" gradientTransform="translate(105.941 80.2059) rotate(-126.151) scale(18.5768 18.17)">
<stop stop-color="white"/>
<stop offset="0.671875" stop-color="white" stop-opacity="0"/>
</radialGradient>
<linearGradient id="paint38_linear_963_1799" x1="69.5" y1="73" x2="69.5" y2="98" gradientUnits="userSpaceOnUse">
<stop stop-color="#727272"/>
<stop offset="1" stop-opacity="0"/>
</linearGradient>
<radialGradient id="paint39_radial_963_1799" cx="0" cy="0" r="1" gradientUnits="userSpaceOnUse" gradientTransform="translate(76.9412 95.2059) rotate(-126.151) scale(18.5768 18.17)">
<stop stop-color="white"/>
<stop offset="0.671875" stop-color="white" stop-opacity="0"/>
</radialGradient>
<linearGradient id="paint40_linear_963_1799" x1="64.5" y1="125" x2="64.5" y2="150" gradientUnits="userSpaceOnUse">
<stop stop-color="#727272"/>
<stop offset="1" stop-opacity="0"/>
</linearGradient>
<radialGradient id="paint41_radial_963_1799" cx="0" cy="0" r="1" gradientUnits="userSpaceOnUse" gradientTransform="translate(71.9412 147.206) rotate(-126.151) scale(18.5768 18.17)">
<stop stop-color="white"/>
<stop offset="0.671875" stop-color="white" stop-opacity="0"/>
</radialGradient>
<linearGradient id="paint42_linear_963_1799" x1="188.5" y1="73" x2="188.5" y2="98" gradientUnits="userSpaceOnUse">
<stop stop-color="#727272"/>
<stop offset="1" stop-opacity="0"/>
</linearGradient>
<radialGradient id="paint43_radial_963_1799" cx="0" cy="0" r="1" gradientUnits="userSpaceOnUse" gradientTransform="translate(195.941 95.2059) rotate(-126.151) scale(18.5768 18.17)">
<stop stop-color="white"/>
<stop offset="0.671875" stop-color="white" stop-opacity="0"/>
</radialGradient>
<linearGradient id="paint44_linear_963_1799" x1="166.5" y1="68" x2="166.5" y2="93" gradientUnits="userSpaceOnUse">
<stop stop-color="#727272"/>
<stop offset="1" stop-opacity="0"/>
</linearGradient>
<radialGradient id="paint45_radial_963_1799" cx="0" cy="0" r="1" gradientUnits="userSpaceOnUse" gradientTransform="translate(173.941 90.2059) rotate(-126.151) scale(18.5768 18.17)">
<stop stop-color="white"/>
<stop offset="0.671875" stop-color="white" stop-opacity="0"/>
</radialGradient>
<linearGradient id="paint46_linear_963_1799" x1="147.5" y1="69" x2="147.5" y2="94" gradientUnits="userSpaceOnUse">
<stop stop-color="#727272"/>
<stop offset="1" stop-opacity="0"/>
</linearGradient>
<radialGradient id="paint47_radial_963_1799" cx="0" cy="0" r="1" gradientUnits="userSpaceOnUse" gradientTransform="translate(154.941 91.2059) rotate(-126.151) scale(18.5768 18.17)">
<stop stop-color="white"/>
<stop offset="0.671875" stop-color="white" stop-opacity="0"/>
</radialGradient>
<linearGradient id="paint48_linear_963_1799" x1="128.5" y1="70" x2="128.5" y2="95" gradientUnits="userSpaceOnUse">
<stop stop-color="#727272"/>
<stop offset="1" stop-opacity="0"/>
</linearGradient>
<radialGradient id="paint49_radial_963_1799" cx="0" cy="0" r="1" gradientUnits="userSpaceOnUse" gradientTransform="translate(135.941 92.2059) rotate(-126.151) scale(18.5768 18.17)">
<stop stop-color="white"/>
<stop offset="0.671875" stop-color="white" stop-opacity="0"/>
</radialGradient>
<linearGradient id="paint50_linear_963_1799" x1="112.5" y1="73" x2="112.5" y2="98" gradientUnits="userSpaceOnUse">
<stop stop-color="#727272"/>
<stop offset="1" stop-opacity="0"/>
</linearGradient>
<radialGradient id="paint51_radial_963_1799" cx="0" cy="0" r="1" gradientUnits="userSpaceOnUse" gradientTransform="translate(119.941 95.2059) rotate(-126.151) scale(18.5768 18.17)">
<stop stop-color="white"/>
<stop offset="0.671875" stop-color="white" stop-opacity="0"/>
</radialGradient>
<linearGradient id="paint52_linear_963_1799" x1="86.5" y1="83" x2="86.5" y2="108" gradientUnits="userSpaceOnUse">
<stop stop-color="#727272"/>
<stop offset="1" stop-opacity="0"/>
</linearGradient>
<radialGradient id="paint53_radial_963_1799" cx="0" cy="0" r="1" gradientUnits="userSpaceOnUse" gradientTransform="translate(93.9412 105.206) rotate(-126.151) scale(18.5768 18.17)">
<stop stop-color="white"/>
<stop offset="0.671875" stop-color="white" stop-opacity="0"/>
</radialGradient>
<linearGradient id="paint54_linear_963_1799" x1="56.5" y1="88" x2="56.5" y2="113" gradientUnits="userSpaceOnUse">
<stop stop-color="#727272"/>
<stop offset="1" stop-opacity="0"/>
</linearGradient>
<radialGradient id="paint55_radial_963_1799" cx="0" cy="0" r="1" gradientUnits="userSpaceOnUse" gradientTransform="translate(63.9412 110.206) rotate(-126.151) scale(18.5768 18.17)">
<stop stop-color="white"/>
<stop offset="0.671875" stop-color="white" stop-opacity="0"/>
</radialGradient>
<linearGradient id="paint56_linear_963_1799" x1="72.5" y1="88" x2="72.5" y2="113" gradientUnits="userSpaceOnUse">
<stop stop-color="#727272"/>
<stop offset="1" stop-opacity="0"/>
</linearGradient>
<radialGradient id="paint57_radial_963_1799" cx="0" cy="0" r="1" gradientUnits="userSpaceOnUse" gradientTransform="translate(79.9412 110.206) rotate(-126.151) scale(18.5768 18.17)">
<stop stop-color="white"/>
<stop offset="0.671875" stop-color="white" stop-opacity="0"/>
</radialGradient>
<linearGradient id="paint58_linear_963_1799" x1="58.5" y1="106" x2="58.5" y2="131" gradientUnits="userSpaceOnUse">
<stop stop-color="#727272"/>
<stop offset="1" stop-opacity="0"/>
</linearGradient>
<radialGradient id="paint59_radial_963_1799" cx="0" cy="0" r="1" gradientUnits="userSpaceOnUse" gradientTransform="translate(65.9412 128.206) rotate(-126.151) scale(18.5768 18.17)">
<stop stop-color="white"/>
<stop offset="0.671875" stop-color="white" stop-opacity="0"/>
</radialGradient>
<linearGradient id="paint60_linear_963_1799" x1="96.5" y1="81" x2="96.5" y2="106" gradientUnits="userSpaceOnUse">
<stop stop-color="#727272"/>
<stop offset="1" stop-opacity="0"/>
</linearGradient>
<radialGradient id="paint61_radial_963_1799" cx="0" cy="0" r="1" gradientUnits="userSpaceOnUse" gradientTransform="translate(103.941 103.206) rotate(-126.151) scale(18.5768 18.17)">
<stop stop-color="white"/>
<stop offset="0.671875" stop-color="white" stop-opacity="0"/>
</radialGradient>
<linearGradient id="paint62_linear_963_1799" x1="84.5" y1="95" x2="84.5" y2="120" gradientUnits="userSpaceOnUse">
<stop stop-color="#727272"/>
<stop offset="1" stop-opacity="0"/>
</linearGradient>
<radialGradient id="paint63_radial_963_1799" cx="0" cy="0" r="1" gradientUnits="userSpaceOnUse" gradientTransform="translate(91.9412 117.206) rotate(-126.151) scale(18.5768 18.17)">
<stop stop-color="white"/>
<stop offset="0.671875" stop-color="white" stop-opacity="0"/>
</radialGradient>
<linearGradient id="paint64_linear_963_1799" x1="73.5" y1="108" x2="73.5" y2="133" gradientUnits="userSpaceOnUse">
<stop stop-color="#727272"/>
<stop offset="1" stop-opacity="0"/>
</linearGradient>
<radialGradient id="paint65_radial_963_1799" cx="0" cy="0" r="1" gradientUnits="userSpaceOnUse" gradientTransform="translate(80.9412 130.206) rotate(-126.151) scale(18.5768 18.17)">
<stop stop-color="white"/>
<stop offset="0.671875" stop-color="white" stop-opacity="0"/>
</radialGradient>
<clipPath id="clip0_963_1799">
<rect width="236" height="236" fill="white"/>
</clipPath>
</defs>
</svg>
