<svg width="236" height="236" viewBox="0 0 236 236" fill="none" xmlns="http://www.w3.org/2000/svg">
<g clip-path="url(#clip0_962_1754)">
<rect width="236" height="236" fill="#E8E8EB"/>
<rect x="207" y="108" width="61" height="55" rx="27.5" transform="rotate(180 207 108)" fill="white"/>
<rect x="207" y="108" width="61" height="55" rx="27.5" transform="rotate(180 207 108)" fill="url(#paint0_linear_962_1754)"/>
<rect x="207" y="108" width="61" height="55" rx="27.5" transform="rotate(180 207 108)" fill="url(#paint1_radial_962_1754)"/>
<rect x="217" y="141" width="61" height="55" rx="27.5" transform="rotate(180 217 141)" fill="white"/>
<rect x="217" y="141" width="61" height="55" rx="27.5" transform="rotate(180 217 141)" fill="url(#paint2_linear_962_1754)"/>
<rect x="217" y="141" width="61" height="55" rx="27.5" transform="rotate(180 217 141)" fill="url(#paint3_radial_962_1754)"/>
<rect x="199" y="181" width="61" height="81" rx="30.5" transform="rotate(180 199 181)" fill="white"/>
<rect x="199" y="181" width="61" height="81" rx="30.5" transform="rotate(180 199 181)" fill="url(#paint4_linear_962_1754)"/>
<rect x="199" y="181" width="61" height="81" rx="30.5" transform="rotate(180 199 181)" fill="url(#paint5_radial_962_1754)"/>
<path d="M93.0596 118.221C100.952 99.387 127.638 99.387 135.531 118.221L184.311 234.624C190.669 249.796 179.526 266.548 163.075 266.548H65.5152C49.0649 266.548 37.9214 249.796 44.2794 234.624L93.0596 118.221Z" fill="white"/>
<path d="M93.0596 118.221C100.952 99.387 127.638 99.387 135.531 118.221L184.311 234.624C190.669 249.796 179.526 266.548 163.075 266.548H65.5152C49.0649 266.548 37.9214 249.796 44.2794 234.624L93.0596 118.221Z" fill="url(#paint6_linear_962_1754)"/>
<path d="M93.0596 118.221C100.952 99.387 127.638 99.387 135.531 118.221L184.311 234.624C190.669 249.796 179.526 266.548 163.075 266.548H65.5152C49.0649 266.548 37.9214 249.796 44.2794 234.624L93.0596 118.221Z" fill="url(#paint7_radial_962_1754)"/>
<rect x="199" y="189" width="170" height="170" rx="85" transform="rotate(180 199 189)" fill="white"/>
<rect x="199" y="189" width="170" height="170" rx="85" transform="rotate(180 199 189)" fill="url(#paint8_linear_962_1754)"/>
<rect x="199" y="189" width="170" height="170" rx="85" transform="rotate(180 199 189)" fill="url(#paint9_radial_962_1754)"/>
<g filter="url(#filter0_i_962_1754)">
<ellipse cx="60" cy="118.5" rx="10" ry="10.5" fill="#D9D9D9"/>
</g>
<g filter="url(#filter1_i_962_1754)">
<ellipse cx="95" cy="118.5" rx="10" ry="10.5" fill="#D9D9D9"/>
</g>
<path fill-rule="evenodd" clip-rule="evenodd" d="M170 76C187.673 76 202 61.6731 202 44C202 26.3269 187.673 12 170 12L92.9999 12C80.8511 12 70.2835 18.7701 64.864 28.7434C59.1219 23.9111 51.7096 20.9999 43.6173 20.9999H40.6667C25.8123 20.9999 12.7196 30.7514 8.46539 44.9836C0.34183 72.1604 27.4607 96.5584 53.6306 85.6173L56.3529 84.4792C63.7245 81.3973 69.5525 75.8392 73.0348 69.0095C78.5078 73.3843 85.4484 76 92.9999 76L170 76Z" fill="white"/>
<path fill-rule="evenodd" clip-rule="evenodd" d="M170 76C187.673 76 202 61.6731 202 44C202 26.3269 187.673 12 170 12L92.9999 12C80.8511 12 70.2835 18.7701 64.864 28.7434C59.1219 23.9111 51.7096 20.9999 43.6173 20.9999H40.6667C25.8123 20.9999 12.7196 30.7514 8.46539 44.9836C0.34183 72.1604 27.4607 96.5584 53.6306 85.6173L56.3529 84.4792C63.7245 81.3973 69.5525 75.8392 73.0348 69.0095C78.5078 73.3843 85.4484 76 92.9999 76L170 76Z" fill="url(#paint10_linear_962_1754)"/>
<path fill-rule="evenodd" clip-rule="evenodd" d="M170 76C187.673 76 202 61.6731 202 44C202 26.3269 187.673 12 170 12L92.9999 12C80.8511 12 70.2835 18.7701 64.864 28.7434C59.1219 23.9111 51.7096 20.9999 43.6173 20.9999H40.6667C25.8123 20.9999 12.7196 30.7514 8.46539 44.9836C0.34183 72.1604 27.4607 96.5584 53.6306 85.6173L56.3529 84.4792C63.7245 81.3973 69.5525 75.8392 73.0348 69.0095C78.5078 73.3843 85.4484 76 92.9999 76L170 76Z" fill="url(#paint11_radial_962_1754)"/>
<rect x="220" y="104" width="61" height="55" rx="27.5" transform="rotate(180 220 104)" fill="white"/>
<rect x="220" y="104" width="61" height="55" rx="27.5" transform="rotate(180 220 104)" fill="url(#paint12_linear_962_1754)"/>
<rect x="220" y="104" width="61" height="55" rx="27.5" transform="rotate(180 220 104)" fill="url(#paint13_radial_962_1754)"/>
</g>
<defs>
<filter id="filter0_i_962_1754" x="50" y="108" width="20" height="29.3476" filterUnits="userSpaceOnUse" color-interpolation-filters="sRGB">
<feFlood flood-opacity="0" result="BackgroundImageFix"/>
<feBlend mode="normal" in="SourceGraphic" in2="BackgroundImageFix" result="shape"/>
<feColorMatrix in="SourceAlpha" type="matrix" values="0 0 0 0 0 0 0 0 0 0 0 0 0 0 0 0 0 0 127 0" result="hardAlpha"/>
<feOffset dy="8.34758"/>
<feGaussianBlur stdDeviation="10.1363"/>
<feComposite in2="hardAlpha" operator="arithmetic" k2="-1" k3="1"/>
<feColorMatrix type="matrix" values="0 0 0 0 0 0 0 0 0 0 0 0 0 0 0 0 0 0 0.25 0"/>
<feBlend mode="normal" in2="shape" result="effect1_innerShadow_962_1754"/>
</filter>
<filter id="filter1_i_962_1754" x="85" y="108" width="20" height="29.3476" filterUnits="userSpaceOnUse" color-interpolation-filters="sRGB">
<feFlood flood-opacity="0" result="BackgroundImageFix"/>
<feBlend mode="normal" in="SourceGraphic" in2="BackgroundImageFix" result="shape"/>
<feColorMatrix in="SourceAlpha" type="matrix" values="0 0 0 0 0 0 0 0 0 0 0 0 0 0 0 0 0 0 127 0" result="hardAlpha"/>
<feOffset dy="8.34758"/>
<feGaussianBlur stdDeviation="10.1363"/>
<feComposite in2="hardAlpha" operator="arithmetic" k2="-1" k3="1"/>
<feColorMatrix type="matrix" values="0 0 0 0 0 0 0 0 0 0 0 0 0 0 0 0 0 0 0.25 0"/>
<feBlend mode="normal" in2="shape" result="effect1_innerShadow_962_1754"/>
</filter>
<linearGradient id="paint0_linear_962_1754" x1="237.5" y1="108" x2="237.5" y2="163" gradientUnits="userSpaceOnUse">
<stop stop-color="#727272"/>
<stop offset="1" stop-opacity="0"/>
</linearGradient>
<radialGradient id="paint1_radial_962_1754" cx="0" cy="0" r="1" gradientUnits="userSpaceOnUse" gradientTransform="translate(257.235 156.853) rotate(-131.372) scale(43.9745 44.7865)">
<stop stop-color="white"/>
<stop offset="0.671875" stop-color="white" stop-opacity="0"/>
</radialGradient>
<linearGradient id="paint2_linear_962_1754" x1="247.5" y1="141" x2="247.5" y2="196" gradientUnits="userSpaceOnUse">
<stop stop-color="#727272"/>
<stop offset="1" stop-opacity="0"/>
</linearGradient>
<radialGradient id="paint3_radial_962_1754" cx="0" cy="0" r="1" gradientUnits="userSpaceOnUse" gradientTransform="translate(267.235 189.853) rotate(-131.372) scale(43.9745 44.7865)">
<stop stop-color="white"/>
<stop offset="0.671875" stop-color="white" stop-opacity="0"/>
</radialGradient>
<linearGradient id="paint4_linear_962_1754" x1="229.5" y1="181" x2="229.5" y2="262" gradientUnits="userSpaceOnUse">
<stop stop-color="#727272"/>
<stop offset="1" stop-opacity="0"/>
</linearGradient>
<radialGradient id="paint5_radial_962_1754" cx="0" cy="0" r="1" gradientUnits="userSpaceOnUse" gradientTransform="translate(249.235 252.947) rotate(-120.881) scale(56.6279 51.2201)">
<stop stop-color="white"/>
<stop offset="0.671875" stop-color="white" stop-opacity="0"/>
</radialGradient>
<linearGradient id="paint6_linear_962_1754" x1="245.668" y1="225.518" x2="53.5155" y2="215.355" gradientUnits="userSpaceOnUse">
<stop/>
<stop offset="1" stop-opacity="0"/>
</linearGradient>
<radialGradient id="paint7_radial_962_1754" cx="0" cy="0" r="1" gradientUnits="userSpaceOnUse" gradientTransform="translate(176.604 303.226) rotate(-119.959) scale(183.753 163.248)">
<stop stop-color="white"/>
<stop offset="0.671875" stop-color="white" stop-opacity="0"/>
</radialGradient>
<linearGradient id="paint8_linear_962_1754" x1="284" y1="189" x2="284" y2="359" gradientUnits="userSpaceOnUse">
<stop stop-color="#727272"/>
<stop offset="1" stop-opacity="0"/>
</linearGradient>
<radialGradient id="paint9_radial_962_1754" cx="0" cy="0" r="1" gradientUnits="userSpaceOnUse" gradientTransform="translate(339 340) rotate(-128.454) scale(130.25)">
<stop stop-color="white"/>
<stop offset="0.671875" stop-color="white" stop-opacity="0"/>
</radialGradient>
<linearGradient id="paint10_linear_962_1754" x1="97.6185" y1="69.2204" x2="97.6185" y2="16.1464" gradientUnits="userSpaceOnUse">
<stop stop-color="#727272"/>
<stop offset="1" stop-opacity="0"/>
</linearGradient>
<radialGradient id="paint11_radial_962_1754" cx="0" cy="0" r="1" gradientUnits="userSpaceOnUse" gradientTransform="translate(53.8745 22.0782) rotate(26.3033) scale(71.8636 58.6182)">
<stop stop-color="white"/>
<stop offset="0.671875" stop-color="white" stop-opacity="0"/>
</radialGradient>
<linearGradient id="paint12_linear_962_1754" x1="250.5" y1="104" x2="250.5" y2="159" gradientUnits="userSpaceOnUse">
<stop stop-color="#727272"/>
<stop offset="1" stop-opacity="0"/>
</linearGradient>
<radialGradient id="paint13_radial_962_1754" cx="0" cy="0" r="1" gradientUnits="userSpaceOnUse" gradientTransform="translate(270.235 152.853) rotate(-131.372) scale(43.9745 44.7865)">
<stop stop-color="white"/>
<stop offset="0.671875" stop-color="white" stop-opacity="0"/>
</radialGradient>
<clipPath id="clip0_962_1754">
<rect width="236" height="236" fill="white"/>
</clipPath>
</defs>
</svg>
