<svg width="200" height="80" xmlns="http://www.w3.org/2000/svg"><g fill="#02001D" fill-rule="nonzero"><path d="M46.863 52.255c-.91-.178-1.84-.31-2.732-.546-8.43-2.191-11.84-11.605-6.726-18.73 4.08-5.675 12.844-6.894 18.425-1.592 1.355 1.288 1.658 2.766.905 3.95-1.19 1.875-3.257 2.186-4.974.69-1.728-1.506-3.666-2.185-5.966-1.661-2.727.62-4.654 3.116-4.537 5.876.117 2.807 2.353 5.29 5.091 5.693 2.032.3 3.79-.241 5.301-1.581 1.582-1.403 2.914-1.455 4.291-.155 1.285 1.219 1.39 3.214.065 4.508-1.927 1.88-4.297 2.973-7 3.347-.368.051-.736.138-1.098.207h-1.045v-.006Zm-3.024-18.453c.222-.035.327-.029.42-.063 3.007-1.145 5.716-.696 8.127 1.426.228.201.496.374.77.512.905.442 1.694.212 2.353-.483.613-.644.806-1.404.222-2.128-.549-.684-1.156-1.357-1.856-1.898-3.38-2.616-8.962-2.806-12.22-.425 1.337.575 2.108 1.547 2.184 3.065v-.006Zm.187 12.467c-.357 1.874-.654 2.26-2.447 3.214 4.338 2.651 9.838 1.92 13.527-1.368.34-.3.602-.788.684-1.23.186-.944-.158-1.726-1.04-2.26-.829-.501-1.518-.294-2.177.293-.362.322-.713.667-1.115.92-2.382 1.495-4.87 1.679-7.432.425v.006Zm-6.352-.581c.414-.529.764-1.19 1.307-1.61.532-.408 1.267-.57 1.787-.788-.193-1.052-.56-2.15-.549-3.237.012-1.11.397-2.22.601-3.226-.595-.207-1.272-.316-1.792-.656-.543-.356-.922-.943-1.372-1.426-2.102 2.726-2.072 8.08.023 10.943h-.005Zm5.02-11.972a1.938 1.938 0 0 0-1.938-1.967c-1.022-.011-2.037.943-2.05 1.92-.01 1.001.964 1.973 1.992 1.985a1.979 1.979 0 0 0 1.996-1.938Zm-3.818 12.702a1.952 1.952 0 0 0 1.956 1.961c1.08 0 2.02-.891 2.032-1.926.011-1-.97-1.973-2.003-1.984a1.992 1.992 0 0 0-1.99 1.95h.005ZM163.552 45.9c-.509.156-1.011.42-1.53.444-1.331.063-1.594-.225-1.594-1.53 0-3.68-.011-7.36.006-11.04 0-.685-.292-1.565.56-1.915a2.538 2.538 0 0 1 2.552.31v13.732h.006ZM109.116 41.72c.555 2.197 2.452 2.37 4.163 2.105.443-.07.875-.224 1.296-.385 1.056-.409 2.277.092 2.592 1.133.058.195-.076.557-.245.684-3.188 2.352-8.921 2.041-10.667-2.024-1.6-3.72.298-7.965 4.099-8.695 3.701-.713 7.397.495 7.835 5.233.157 1.725-.158 2.03-1.904 1.967-2.364-.087-4.729-.023-7.169-.023v.005Zm.134-2.714h5.868c-.444-1.357-1.145-1.92-2.388-1.972-1.798-.075-2.837.489-3.48 1.972ZM78.985 34.446c3.468.017 6.2 2.709 6.154 6.05-.047 3.387-2.861 6.164-6.253 6.164-3.439 0-6.247-2.818-6.241-6.268.006-3.41 2.732-5.969 6.334-5.946h.006ZM75.92 40.52c-.03 1.886 1.267 3.312 3.042 3.34 1.769.035 3.129-1.31 3.152-3.116.03-2.047-1.249-3.485-3.1-3.496-1.815-.012-3.059 1.305-3.088 3.272h-.006ZM155.704 45.107c-1.097.943-2.399 1.501-3.934 1.455-2.639-.086-4.554-1.886-4.74-4.64-.135-1.973-.053-3.957-.094-5.935-.018-.891.38-1.317 1.296-1.34 1.29-.034 1.786.242 1.822 1.277a81.9 81.9 0 0 1 0 4.91c-.053 1.582.853 2.75 2.388 2.94 1.406.177 2.989-.852 3.134-2.266.176-1.725.128-3.468.158-5.204.024-1.42.35-1.708 1.816-1.657.81.03 1.284.426 1.296 1.174.035 3.14.035 6.279.006 9.413 0 .632-.321 1.138-1.08 1.127-.742-.006-1.611.195-1.81-.886a1.416 1.416 0 0 0-.088-.293c-.006-.023-.064-.023-.175-.069l.005-.006ZM89.184 35.907c1.244-.96 2.616-1.587 4.233-1.392 2.645.322 4.431 2.392 4.53 5.308.059 1.77 0 3.553.018 5.325.012 1.035-.619 1.236-1.506 1.224-1.29-.017-1.594-.2-1.606-1.213-.023-1.639-.006-3.278-.006-4.916 0-1.766-1.103-2.968-2.726-2.962-1.617.006-2.907 1.305-2.93 2.985-.024 1.57 0 3.14-.007 4.709-.005 1.116-.256 1.328-1.453 1.334-1.32.006-1.606-.201-1.612-1.305-.017-2.87 0-5.74-.011-8.603 0-.776-.018-1.552 1.016-1.736 1.085-.19 1.582.097 2.072 1.247l-.012-.005ZM122.188 35.999c1.308-1.104 2.779-1.725 4.519-1.444 2.51.409 4.075 2.186 4.29 5.066.14 1.87.077 3.755.047 5.63-.017.92-.478 1.139-1.827 1.116-.858-.012-1.29-.351-1.279-1.231.018-1.639.012-3.278 0-4.916-.011-1.743-1.068-2.916-2.65-2.95a2.939 2.939 0 0 0-3.013 2.898c-.035 1.604 0 3.208-.017 4.813-.012 1.092-.274 1.31-1.477 1.317-1.285 0-1.606-.23-1.612-1.306-.017-2.904 0-5.808-.011-8.706 0-.816.082-1.524 1.12-1.639 1.14-.126 1.612.19 1.921 1.346l-.011.006ZM61.955 39.679c.088-1.68 1.057-3.496 3.182-4.531 2.253-1.104 4.507-.966 6.65.39.683.438.706.88.151 1.49-.735.805-1.33 1.242-2.522.552-1.348-.788-2.936-.253-3.795.937-.887 1.237-.776 3.307.234 4.382 1.01 1.075 2.505 1.248 3.917.518.397-.207 1.016-.518 1.267-.363.596.368 1.086.943 1.5 1.524.082.115-.309.702-.6.897-2.114 1.41-4.35 1.53-6.621.42-2.143-1.046-3.386-3.186-3.363-6.21v-.006ZM143.054 34.573c1.097.437 2.936-.621 3.006 1.397.076 2.156-1.874 1.196-3.059 1.593v7.228c0 1.351-.268 1.599-1.67 1.581-1.22-.011-1.448-.23-1.448-1.46 0-3.686-.011-7.366 0-11.052.012-2.79 3.007-4.905 5.745-4.077.77.23.823.84.788 1.483-.029.627-.315 1.035-.992 1.104-.14.012-.28 0-.42.012-1.565.046-2.067.61-1.95 2.196v-.005ZM135.476 34.693c.829 0 1.523-.04 2.212.012.87.063 1.174.62 1.127 1.415-.047.764-.385 1.207-1.238 1.173-.653-.023-1.313 0-2.055 0 0 1.76-.04 3.45.018 5.14.03.834.56 1.242 1.46 1.248 1.126.012 1.424.38 1.406 1.426-.017.943-.554 1.202-1.424 1.214-3.164.04-4.554-1.23-4.589-4.342-.029-2.898-.012-5.796 0-8.694 0-1.23.304-1.513 1.524-1.513 1.313 0 1.535.207 1.553 1.455V34.7l.006-.006Z"/><path d="M102.525 34.688c.712 0 1.237-.012 1.757 0 1.11.023 1.442.38 1.442 1.409 0 .948-.508 1.253-1.401 1.196-.549-.035-1.104-.006-1.751-.006 0 1.834-.041 3.594.017 5.353.023.725.596 1.001 1.32 1.03 1.179.052 1.6.477 1.535 1.443-.058.897-.485 1.202-1.682 1.19-3.035-.028-4.302-1.265-4.32-4.26-.017-2.94-.006-5.872 0-8.81 0-1.26.234-1.472 1.542-1.472 1.231 0 1.517.282 1.535 1.506.006.46 0 .92 0 1.415l.006.006Z"/></g></svg>