<svg width="200" height="80" xmlns="http://www.w3.org/2000/svg"><g fill="#000" fill-rule="nonzero"><path d="M41.119 38.876c0 .47.031.907.094 1.344 2.312-.219 6.219-1.281 6.219-4.344 0-1.375-.719-2.719-2.532-2.719-2.375 0-3.781 2.344-3.781 5.72m10.625 5.78c-.78 1.25-3.218 3.75-6.969 3.75-4.156 0-7.688-3.062-7.688-7.906 0-5.094 3.907-8.75 8.376-8.75 3.031 0 5.469 1.562 5.469 4.219 0 4.156-6.125 5.094-9.5 5.406.78 2.844 2.906 4 5.156 4 1.875 0 3.188-.937 4.094-1.624.594-.47 1.344.468 1.062.906M79.09 46.408c.437.062.718.375.718.812v.125c0 .438-.281.72-.719.72h-6.406c-.438 0-.72-.282-.72-.72v-.125c0-.437.282-.75.72-.812l.593-.063c.438-.062.72-.375.72-.812v-8.22c0-1.906-1.126-2.75-2.532-2.75-1 0-2.063.344-2.938 1.22-.281.28-.437.5-.437 1.124v8.626c0 .437.28.75.718.812l.594.063c.438.062.719.375.719.812v.125c0 .438-.281.72-.719.72h-6.406c-.438 0-.72-.282-.72-.72v-.125c0-.437.282-.75.72-.812l.593-.063c.438-.062.72-.375.72-.812v-8.22c0-1.906-1.126-2.75-2.532-2.75-1 0-2.157.47-3 1.25-.313.313-.47.563-.47 1.032v8.688c0 .437.282.75.72.812l.593.063c.438.062.72.375.72.812v.125c0 .438-.282.72-.72.72h-6.406c-.438 0-.719-.282-.719-.72v-.125c0-.437.281-.75.719-.812l.594-.063c.437-.062.718-.375.718-.812v-10.25c0-.438-.28-.75-.718-.813l-.72-.094c-.437-.062-.718-.375-.718-.813v-.125c0-.437.281-.718.719-.718 1.219-.063 2.531-.407 3.719-.907.406-.187.719-.031.781.407l.438 2.406h.406c1.156-1.594 2.844-2.875 5.188-2.875 2 0 3.406 1.094 4.062 2.875h.438c1.156-1.594 2.844-2.875 5.188-2.875 2.812 0 4.469 2.219 4.469 5.375v8.407c0 .437.28.75.718.812l.594.063Z"/><path d="M92.964 40.376c0-4.219-1.656-6-4.031-6-1.032 0-1.782.344-2.438.812-.531.376-.938.813-.938 1.657v7.688c0 1.281 1.188 2.406 2.907 2.406 2.531 0 4.5-2.125 4.5-6.563m4.031-.781c0 6.47-4.281 8.844-8.031 8.844-1.125 0-2.469-.219-3.407-.625v4.688c0 .437.282.75.72.844l1.562.218c.437.094.719.407.719.844v.125c0 .438-.282.719-.72.719h-7.406c-.437 0-.719-.281-.719-.719v-.125c0-.437.282-.781.688-.875l.687-.156a.876.876 0 0 0 .688-.875v-17.22c0-.437-.281-.75-.719-.812l-.719-.094c-.437-.063-.718-.375-.718-.813v-.125c0-.437.28-.718.718-.718 1.22-.063 2.532-.407 3.72-.907.406-.187.718-.031.78.407l.376 2.062h.406c1.437-1.844 3.125-2.531 4.969-2.531 3.875 0 6.406 3.219 6.406 7.844M107.34 41.97c0-.437-.25-.719-.688-.719h-1.157c-1.968 0-3.375.813-3.375 2.563 0 1.5 1.031 2.25 2.282 2.25 1.093 0 1.937-.562 2.344-.937.343-.313.437-.532.468-1.157l.125-2Zm6.812 4.282c-.062.125-.187.28-.281.406-.813.969-1.969 1.625-3.375 1.625-1.532 0-2.532-.781-2.813-2.344h-.406c-1.219 1.625-2.938 2.5-4.688 2.5-2.406 0-4.25-1.562-4.25-3.844 0-2.062 1.531-3.469 4.5-4.125l3.938-.844c.406-.094.687-.437.719-.875l.062-1.031c.125-2.5-.875-4.188-3.563-4.188-1.25 0-2.437.375-3.375 1.094 1.188 0 2.125.844 2.125 2.031 0 1.188-.937 2.094-2.125 2.094-1.187 0-2.125-.937-2.125-2.469 0-2.969 3.563-4.531 6.875-4.531 3.813 0 6.188 2.031 5.97 5.688l-.407 7.188c-.062.906.375 1.218.938 1.218.25 0 .781-.062 1.562-.375.47-.187.907.313.72.782ZM119.433 48.314c-2.344 0-3.813-1.187-3.813-4.656V34.5a.47.47 0 0 0-.343-.469l-1.5-.594c-.188-.093-.313-.25-.313-.437v-.063c0-.156.094-.312.281-.406 1.72-1.094 3.344-2.5 4.97-4.25.28-.281.905-.063.843.406l-.469 3.438h4.75c.438 0 .688.281.625.719l-.124.593c-.063.438-.375.688-.813.657l-4.125-.282v9.376c0 2.219.844 2.594 2.062 2.594 1.032 0 1.782-.282 2.094-.438.344-.156.625 0 .75.219.156.25.188.594-.125.875-1.094.906-2.625 1.875-4.75 1.875M142.496 46.408c.438.062.72.375.72.812v.125c0 .438-.282.72-.72.72h-6.406c-.438 0-.719-.282-.719-.72v-.125c0-.437.281-.75.719-.812l.594-.063c.437-.062.718-.375.718-.812V37.25c0-2.062-1.25-2.687-2.656-2.687-1.219 0-2.313.468-3.282 1.343-.124.125-.374.375-.374.844v8.782c0 .437.28.75.718.812l.594.063c.438.062.719.375.719.812v.125c0 .438-.281.72-.719.72h-6.406c-.438 0-.72-.282-.72-.72v-.125c0-.437.282-.75.72-.812l.593-.063c.438-.062.72-.375.72-.812V27.688c0-.312-.188-.531-.5-.562l-.813-.157c-.438-.062-.72-.375-.72-.781 0-.437.282-.719.72-.75 1.437-.125 2.875-.562 4.375-1.25.437-.219.719-.062.719.375v9.875h.406c1.156-1.593 2.812-2.687 5-2.687 3.094 0 4.688 2.219 4.688 5.375v8.407c0 .437.281.75.719.812l.593.063Z"/><path d="M158.903 32.126c.437 0 .719.281.719.719v.031a.876.876 0 0 1-.688.875l-.25.062c-.406.094-.75.438-.844.844-1.406 5.938-3.75 12.75-6.906 16.876-1.782 2.313-3.75 3.782-6.095 3.782-2.218 0-2.968-1.344-2.968-2.563 0-1.281.906-2.188 2.156-2.188s2.156.907 2.156 2.157c0 .281-.03.531-.125.78 1.813-.718 3.376-2.405 4.75-4.624-2.75-4.625-4.937-9.282-6.53-14.563a.637.637 0 0 0-.563-.47l-.5-.093c-.438-.063-.72-.375-.72-.812v-.094c0-.438.282-.72.72-.72h6.156c.438 0 .719.282.719.72v.094c0 .437-.281.75-.719.812l-.312.062c-.438.063-.657.375-.563.782 1.031 3.969 2.781 7.656 4.25 10.656 1.375-3.312 2.5-7.187 3.25-10.625.094-.406-.125-.719-.562-.781l-.844-.125c-.437-.063-.719-.375-.719-.813v-.062c0-.438.282-.72.72-.72h4.312ZM160.434 48.47c-1.344 0-2.438-1.062-2.438-2.406 0-1.313 1.094-2.406 2.438-2.406a2.428 2.428 0 0 1 2.406 2.406 2.407 2.407 0 0 1-2.406 2.406"/></g></svg>