<svg width="735" height="463" viewBox="0 0 735 463" fill="none" xmlns="http://www.w3.org/2000/svg">
<g filter="url(#filter0_d_949_1878)">
<circle cx="612.5" cy="108.5" r="49.5" fill="white"/>
<circle cx="612.5" cy="108.5" r="49.5" fill="url(#paint0_linear_949_1878)"/>
<circle cx="612.5" cy="108.5" r="49.5" fill="url(#paint1_radial_949_1878)"/>
</g>
<g filter="url(#filter1_d_949_1878)">
<rect x="94" y="81.9678" width="533.707" height="321.032" rx="4.75952" fill="#8F8F8F"/>
<ellipse cx="103.364" cy="94.117" rx="2.34082" ry="2.34212" fill="#FEFEFE"/>
<ellipse cx="112.726" cy="94.117" rx="2.34082" ry="2.34212" fill="#FEFEFE"/>
<ellipse cx="122.089" cy="94.117" rx="2.34082" ry="2.34212" fill="#FEFEFE"/>
<g clip-path="url(#clip0_949_1878)">
<path d="M94 107.65H627.83V399.331C627.83 401.357 626.188 403 624.162 403H97.669C95.6427 403 94 401.357 94 399.331V107.65Z" fill="#E8E8EB"/>
<g filter="url(#filter2_d_949_1878)">
<rect x="702.512" y="403.447" width="74.2027" height="251.535" rx="37.1013" transform="rotate(129.93 702.512 403.447)" fill="white"/>
<rect x="702.512" y="403.447" width="74.2027" height="251.535" rx="37.1013" transform="rotate(129.93 702.512 403.447)" fill="url(#paint2_linear_949_1878)"/>
<rect x="702.512" y="403.447" width="74.2027" height="251.535" rx="37.1013" transform="rotate(129.93 702.512 403.447)" fill="url(#paint3_radial_949_1878)"/>
</g>
</g>
<rect x="272.861" y="89.3057" width="175.192" height="11.924" rx="1.83447" fill="white"/>
</g>
<g filter="url(#filter3_d_949_1878)">
<path d="M79.7082 166.344C81.3226 157.528 91.8761 153.765 98.7045 159.571L172.117 221.997C178.946 227.804 176.928 238.825 168.485 241.835L77.7161 274.2C69.2733 277.21 60.7377 269.952 62.3521 261.135L79.7082 166.344Z" fill="white"/>
<path d="M79.7082 166.344C81.3226 157.528 91.8761 153.765 98.7045 159.571L172.117 221.997C178.946 227.804 176.928 238.825 168.485 241.835L77.7161 274.2C69.2733 277.21 60.7377 269.952 62.3521 261.135L79.7082 166.344Z" fill="url(#paint4_linear_949_1878)"/>
<path d="M79.7082 166.344C81.3226 157.528 91.8761 153.765 98.7045 159.571L172.117 221.997C178.946 227.804 176.928 238.825 168.485 241.835L77.7161 274.2C69.2733 277.21 60.7377 269.952 62.3521 261.135L79.7082 166.344Z" fill="url(#paint5_radial_949_1878)"/>
</g>
<defs>
<filter id="filter0_d_949_1878" x="491.874" y="10.9417" width="241.252" height="241.252" filterUnits="userSpaceOnUse" color-interpolation-filters="sRGB">
<feFlood flood-opacity="0" result="BackgroundImageFix"/>
<feColorMatrix in="SourceAlpha" type="matrix" values="0 0 0 0 0 0 0 0 0 0 0 0 0 0 0 0 0 0 127 0" result="hardAlpha"/>
<feOffset dy="23.068"/>
<feGaussianBlur stdDeviation="35.5631"/>
<feComposite in2="hardAlpha" operator="out"/>
<feColorMatrix type="matrix" values="0 0 0 0 0 0 0 0 0 0 0 0 0 0 0 0 0 0 0.34 0"/>
<feBlend mode="normal" in2="BackgroundImageFix" result="effect1_dropShadow_949_1878"/>
<feBlend mode="normal" in="SourceGraphic" in2="effect1_dropShadow_949_1878" result="shape"/>
</filter>
<filter id="filter1_d_949_1878" x="53.6417" y="54.4507" width="614.547" height="401.749" filterUnits="userSpaceOnUse" color-interpolation-filters="sRGB">
<feFlood flood-opacity="0" result="BackgroundImageFix"/>
<feColorMatrix in="SourceAlpha" type="matrix" values="0 0 0 0 0 0 0 0 0 0 0 0 0 0 0 0 0 0 127 0" result="hardAlpha"/>
<feOffset dy="12.8413"/>
<feGaussianBlur stdDeviation="20.1792"/>
<feComposite in2="hardAlpha" operator="out"/>
<feColorMatrix type="matrix" values="0 0 0 0 0 0 0 0 0 0 0 0 0 0 0 0 0 0 0.25 0"/>
<feBlend mode="normal" in2="BackgroundImageFix" result="effect1_dropShadow_949_1878"/>
<feBlend mode="normal" in="SourceGraphic" in2="effect1_dropShadow_949_1878" result="shape"/>
</filter>
<filter id="filter2_d_949_1878" x="414.85" y="234.083" width="334.812" height="312.647" filterUnits="userSpaceOnUse" color-interpolation-filters="sRGB">
<feFlood flood-opacity="0" result="BackgroundImageFix"/>
<feColorMatrix in="SourceAlpha" type="matrix" values="0 0 0 0 0 0 0 0 0 0 0 0 0 0 0 0 0 0 127 0" result="hardAlpha"/>
<feOffset dy="39.2331"/>
<feGaussianBlur stdDeviation="31.1557"/>
<feComposite in2="hardAlpha" operator="out"/>
<feColorMatrix type="matrix" values="0 0 0 0 0 0 0 0 0 0 0 0 0 0 0 0 0 0 0.35 0"/>
<feBlend mode="normal" in2="BackgroundImageFix" result="effect1_dropShadow_949_1878"/>
<feBlend mode="normal" in="SourceGraphic" in2="effect1_dropShadow_949_1878" result="shape"/>
</filter>
<filter id="filter3_d_949_1878" x="30.7157" y="145.143" width="176.945" height="180.982" filterUnits="userSpaceOnUse" color-interpolation-filters="sRGB">
<feFlood flood-opacity="0" result="BackgroundImageFix"/>
<feColorMatrix in="SourceAlpha" type="matrix" values="0 0 0 0 0 0 0 0 0 0 0 0 0 0 0 0 0 0 127 0" result="hardAlpha"/>
<feOffset dy="19.7945"/>
<feGaussianBlur stdDeviation="15.7192"/>
<feComposite in2="hardAlpha" operator="out"/>
<feColorMatrix type="matrix" values="0 0 0 0 0 0 0 0 0 0 0 0 0 0 0 0 0 0 0.25 0"/>
<feBlend mode="normal" in2="BackgroundImageFix" result="effect1_dropShadow_949_1878"/>
<feBlend mode="normal" in="SourceGraphic" in2="effect1_dropShadow_949_1878" result="shape"/>
</filter>
<linearGradient id="paint0_linear_949_1878" x1="644.218" y1="235.374" x2="767.728" y2="25.8398" gradientUnits="userSpaceOnUse">
<stop/>
<stop offset="1" stop-opacity="0"/>
</linearGradient>
<radialGradient id="paint1_radial_949_1878" cx="0" cy="0" r="1" gradientUnits="userSpaceOnUse" gradientTransform="translate(655.093 147.64) rotate(-149.287) scale(135.236)">
<stop stop-color="white"/>
<stop offset="0.671875" stop-color="white" stop-opacity="0"/>
</radialGradient>
<linearGradient id="paint2_linear_949_1878" x1="739.614" y1="403.447" x2="739.614" y2="654.982" gradientUnits="userSpaceOnUse">
<stop stop-color="#727272"/>
<stop offset="1" stop-opacity="0"/>
</linearGradient>
<radialGradient id="paint3_radial_949_1878" cx="0" cy="0" r="1" gradientUnits="userSpaceOnUse" gradientTransform="translate(763.621 626.869) rotate(-103.185) scale(155.007 70.6843)">
<stop stop-color="white"/>
<stop offset="0.671875" stop-color="white" stop-opacity="0"/>
</radialGradient>
<linearGradient id="paint4_linear_949_1878" x1="216.323" y1="198.864" x2="64.5069" y2="240.843" gradientUnits="userSpaceOnUse">
<stop/>
<stop offset="1" stop-opacity="0"/>
</linearGradient>
<radialGradient id="paint5_radial_949_1878" cx="0" cy="0" r="1" gradientUnits="userSpaceOnUse" gradientTransform="translate(178.532 261.419) rotate(-148.078) scale(120.94)">
<stop stop-color="white"/>
<stop offset="0.671875" stop-color="white" stop-opacity="0"/>
</radialGradient>
<clipPath id="clip0_949_1878">
<path d="M94 107.65H627.83V399.331C627.83 401.357 626.188 403 624.162 403H97.669C95.6427 403 94 401.357 94 399.331V107.65Z" fill="white"/>
</clipPath>
</defs>
</svg>
