<svg width="736" height="456" fill="none" xmlns="http://www.w3.org/2000/svg"><path d="M227.895 1.65H1.803v452.785h226.092V1.65ZM255.786 453.833h226.092V1.049H255.786v452.784ZM734.798 1.65H508.706v452.785h226.092V1.65Z" stroke="#000024" stroke-width="2" stroke-miterlimit="10"/><path d="M368.602 216.62c56.291 0 101.925-45.633 101.925-101.924 0-56.292-45.634-101.924-101.925-101.924S266.678 58.404 266.678 114.696c0 56.291 45.633 101.924 101.924 101.924ZM114.713 442.548c56.291 0 101.924-45.633 101.924-101.924 0-56.291-45.633-101.924-101.924-101.924-56.29 0-101.924 45.633-101.924 101.924 0 56.291 45.633 101.924 101.924 101.924ZM620.921 442.548c56.291 0 101.924-45.633 101.924-101.924 0-56.291-45.633-101.924-101.924-101.924-56.291 0-101.924 45.633-101.924 101.924 0 56.291 45.633 101.924 101.924 101.924Z" stroke="#000024" stroke-width="1.803" stroke-miterlimit="10"/><path d="M0 227.741h227.896M481.649 227.741H254.955M508.104 227.741H736" stroke="#000024" stroke-width="2" stroke-miterlimit="10"/></svg>