<svg width="84" height="84" viewBox="0 0 84 84" fill="none" xmlns="http://www.w3.org/2000/svg">
<circle cx="42" cy="42" r="42" fill="white"/>
<path d="M42.4028 63.4034C39.9861 63.4034 37.593 62.9274 35.3602 62.0026C33.1274 61.0777 31.0987 59.7221 29.3898 58.0133C27.6809 56.3044 26.3254 54.2756 25.4005 52.0429C24.4757 49.8101 23.9997 47.417 23.9997 45.0003C23.9997 42.5836 24.4757 40.1905 25.4005 37.9577C26.3254 35.7249 27.6809 33.6962 29.3898 31.9873C31.0987 30.2784 33.1274 28.9229 35.3602 27.998C37.593 27.0732 39.9861 26.5972 42.4028 26.5972L42.4028 45.0003L42.4028 63.4034Z" fill="#D9D9D9"/>
<path opacity="0.8" d="M42.4031 19.9999C44.8199 19.9999 47.2129 20.4759 49.4457 21.4008C51.6785 22.3256 53.7072 23.6812 55.4161 25.3901C57.125 27.0989 58.4805 29.1277 59.4054 31.3605C60.3302 33.5932 60.8062 35.9863 60.8062 38.403C60.8062 40.8198 60.3302 43.2128 59.4054 45.4456C58.4805 47.6784 57.125 49.7071 55.4161 51.416C53.7072 53.1249 51.6785 54.4805 49.4457 55.4053C47.2129 56.3301 44.8199 56.8062 42.4031 56.8062L42.4031 38.403L42.4031 19.9999Z" fill="#4A4A4A"/>
</svg>
