<svg width="396" height="249" viewBox="0 0 396 249" fill="none" xmlns="http://www.w3.org/2000/svg">
<rect width="395.619" height="248.857" fill="#E7E7EA"/>
<rect width="395.619" height="248.857" rx="10" fill="#E7E7EA"/>
<path d="M167.492 138.556L184.69 121.358C186.096 119.952 188.003 119.162 189.992 119.162C191.981 119.162 193.888 119.952 195.295 121.358L212.492 138.556M204.992 131.056L210.94 125.108C212.346 123.702 214.253 122.912 216.242 122.912C218.231 122.912 220.138 123.702 221.545 125.108L227.492 131.056M204.992 108.556H205.03M174.992 153.556H219.992C221.981 153.556 223.889 152.765 225.295 151.359C226.702 149.952 227.492 148.045 227.492 146.056V101.056C227.492 99.0665 226.702 97.1589 225.295 95.7524C223.889 94.3458 221.981 93.5557 219.992 93.5557H174.992C173.003 93.5557 171.095 94.3458 169.689 95.7524C168.282 97.1589 167.492 99.0665 167.492 101.056V146.056C167.492 148.045 168.282 149.952 169.689 151.359C171.095 152.765 173.003 153.556 174.992 153.556Z" stroke="#D2D2D8" stroke-width="7.5" stroke-linecap="round" stroke-linejoin="round"/>
</svg>
