<?xml version="1.0" encoding="UTF-8"?>
<svg width="200px" height="80px" viewBox="0 0 200 80" version="1.1" xmlns="http://www.w3.org/2000/svg" xmlns:xlink="http://www.w3.org/1999/xlink">
    <title>rangle</title>
    <g id="rangle" stroke="none" stroke-width="1" fill="none" fill-rule="evenodd">
        <g id="Group" transform="translate(44.000000, 25.000000)" fill="#02001D" fill-rule="nonzero">
            <path d="M6.0536508,14.397858 L14.234268,22.905678 L21.10596,22.905678 L12.59814,14.397858 C17.212062,14.266986 20.287896,11.452896 20.287896,7.1989404 C20.287896,2.945019 17.179344,8.50519655e-14 12.27096,8.50519655e-14 L7.08766379e-14,8.50519655e-14 L7.08766379e-14,22.905678 L5.2355982,22.905678 L5.2355982,14.397858 L6.0536508,14.397858 Z M5.2355982,10.1439594 L5.2355982,4.4175342 L12.27096,4.4175342 C13.743384,4.4175342 15.052332,5.2355982 15.052332,7.2643878 C15.052332,9.3258954 13.743384,10.1439594 12.27096,10.1439594 L5.2355982,10.1439594 Z" id="Shape"></path>
            <path d="M28.51881,10.6347978 C28.6824,9.6858504 29.467746,8.9986812 31.365618,8.9986812 C33.754374,8.9986812 34.343412,9.9803466 34.343412,11.616486 L34.343412,11.780076 L29.140566,12.27096 C25.213836,12.630858 22.596054,14.397858 22.596054,17.670114 C22.596054,21.433254 25.377426,23.396562 28.813272,23.396562 C31.758348,23.396562 33.361758,22.414908 34.343412,21.10596 L34.343412,22.905678 L39.317232,22.905678 L39.317232,11.616486 C39.317232,7.0353276 35.685078,5.399211 31.365618,5.399211 C26.948118,5.399211 24.003156,7.2643878 23.414118,10.6347978 L28.51881,10.6347978 Z M29.95863,19.797126 C28.420656,19.797126 27.569874,18.979062 27.569874,17.670114 C27.569874,16.52487 28.158912,15.706806 29.696772,15.543216 L34.343412,15.052332 L34.343412,15.543216 C34.343412,18.324588 32.44554,19.797126 29.95863,19.797126 Z" id="Shape"></path>
            <path d="M48.408846,5.890038 L43.435026,5.890038 L43.435026,22.905678 L48.408846,22.905678 L48.408846,13.907088 C48.408846,11.1256362 50.012256,9.4895082 52.401012,9.4895082 C54.626178,9.4895082 55.575114,10.7984106 55.575114,12.92532 L55.575114,22.905678 L60.548934,22.905678 L60.548934,12.59814 C60.548934,8.0170044 57.865602,5.399211 53.546256,5.399211 C51.321204,5.399211 49.55409,6.2172636 48.408846,7.6897788 L48.408846,5.890038 Z" id="Path"></path>
            <path d="M68.68899,13.907088 C68.68899,10.7984106 70.586862,9.162294 72.648438,9.162294 C74.93904,9.162294 76.771476,10.9620234 76.771476,13.907088 C76.771476,16.85205 74.93904,18.651768 72.648438,18.651768 C70.586862,18.651768 68.68899,17.01564 68.68899,13.907088 Z M76.607886,20.77878 C76.607886,24.214626 74.742618,25.687164 72.812028,25.687164 C71.863092,25.687164 70.45599,25.52346 69.932502,24.051036 L64.860528,24.051036 C65.514888,27.323292 68.656272,29.2866 72.812028,29.2866 C77.622258,29.2866 81.581706,26.177934 81.581706,20.77878 L81.581706,5.890038 L76.607886,5.890038 L76.607886,7.526166 C75.953412,6.708102 74.415438,5.399211 71.666784,5.399211 C66.889272,5.399211 63.71517,9.162294 63.71517,13.907088 C63.71517,18.651768 66.92199,22.414908 71.666784,22.414908 C74.415438,22.414908 75.98613,21.10596 76.607886,20.287896 L76.607886,20.77878 Z" id="Shape"></path>
            <polygon id="Path" points="85.859784 22.905678 90.833604 22.905678 90.833604 8.50519655e-14 85.859784 8.50519655e-14"></polygon>
            <path d="M106.196928,17.833704 C105.967902,18.815358 104.920812,19.797126 103.284684,19.797126 C101.0268,19.797126 99.488826,18.160998 99.325236,16.033986 L111.890658,16.033986 L111.890658,15.215922 C111.890658,13.776102 111.727068,12.336396 111.334338,11.0929068 C110.25453,7.6897788 107.44044,5.399211 103.12098,5.399211 C97.65639,5.399211 94.187826,9.3258954 94.187826,14.397858 C94.187826,19.469832 97.65639,23.396562 103.284684,23.396562 C107.76762,23.396562 110.58171,20.94237 111.563478,17.833704 L106.196928,17.833704 Z M103.12098,8.9986812 C105.215274,8.9986812 106.589658,10.3075722 106.753248,12.59814 L99.325236,12.59814 C99.652416,10.3075722 101.0268,8.9986812 103.12098,8.9986812 Z" id="Shape"></path>
        </g>
    </g>
</svg>