<?xml version="1.0" encoding="UTF-8"?>
<svg width="200px" height="80px" viewBox="0 0 200 80" version="1.1" xmlns="http://www.w3.org/2000/svg" xmlns:xlink="http://www.w3.org/1999/xlink">
    <title>sanity</title>
    <g id="sanity" stroke="none" stroke-width="1" fill="none" fill-rule="evenodd">
        <g transform="translate(34.000000, 27.000000)" fill="#02001D" fill-rule="nonzero" id="Path">
            <polygon opacity="0.7" points="98.505918 10.0706886 98.505918 26.463528 93.117906 26.463528 93.117906 12.869388"></polygon>
            <polygon opacity="0.7" points="26.398386 26.8758 38.98944 20.292426 37.437246 16.271766 29.147832 20.137446"></polygon>
            <polygon opacity="0.5" points="93.117906 12.855402 106.777818 5.8650102 104.469876 1.961946 93.117906 7.5095622"></polygon>
            <polygon opacity="0.7" points="54.64683 8.7725358 54.64683 26.463528 49.508802 26.463528 49.508802 1.2689964"></polygon>
            <polygon opacity="0.5" points="34.183674 7.7945742 26.398386 26.8758 22.394106 23.428818 31.670478 1.2689964"></polygon>
            <polygon points="31.670478 1.2689964 36.978102 1.2689964 46.794636 26.463528 41.361894 26.463528"></polygon>
            <polygon points="55.441512 1.2689964 66.757824 18.481932 66.757824 26.463528 49.508802 1.2689964"></polygon>
            <polygon points="81.797058 1.2689964 76.449114 1.2689964 76.449114 26.467938 81.797058 26.467938"></polygon>
            <polygon points="93.117906 5.8649724 84.8862 5.8649724 84.8862 1.2689964 104.059242 1.2689964 106.777818 5.8649724 98.505918 5.8649724"></polygon>
            <polyline opacity="0.5" points="122.567004 16.903278 122.567004 26.463528 117.259254 26.463528 117.259254 16.903278"></polyline>
            <polygon points="117.259254 16.903152 126.24066 1.2689964 131.87916 1.2689964 122.567004 16.903152"></polygon>
            <polygon opacity="0.7" points="117.25938 16.903152 108.027738 1.2689964 113.835456 1.2689964 120.089592 11.9827008"></polygon>
            <path d="M2.4711876,4.1766354 C2.4711876,7.6850046 4.676427,9.772497 9.0913536,10.8732456 L13.769658,11.9389158 C17.947944,12.881736 20.492514,15.223572 20.492514,19.038978 C20.525022,20.70117 19.974906,22.323798 18.934524,23.634954 C18.934524,19.828368 16.930242,17.771544 12.0956472,16.534854 L7.5021534,15.50871 C3.823785,14.684166 0.98466228,12.759012 0.98466228,8.6147334 C0.96531498,7.0143318 1.4882616,5.4530406 2.4711876,4.1766354"></path>
            <polygon opacity="0.7" points="66.757824 17.18829 66.757824 1.2689964 71.895852 1.2689964 71.895852 26.463528 66.757824 26.463528"></polygon>
            <path d="M16.059708,18.104814 C18.055044,19.359018 18.929988,21.11319 18.929988,23.630544 C17.27838,25.709166 14.376726,26.8758 10.9661958,26.8758 C5.2254468,26.8758 1.20780702,24.099768 0.315,19.275732 L5.8280922,19.275732 C6.5378628,21.490434 8.4172284,22.516578 10.9260144,22.516578 C13.988394,22.516578 16.023924,20.911464 16.064118,18.095994" opacity="0.7"></path>
            <path d="M5.3369442,9.3777642 C4.42575,8.845767 3.678192,8.081325 3.1735998,7.1655822 C2.6690202,6.2498394 2.4262308,5.216967 2.4710238,4.1765976 C4.0646844,2.1154266 6.8368608,0.85679118 10.2161304,0.85679118 C16.063992,0.85679118 19.447722,3.8915352 20.282472,8.1629856 L14.979258,8.1629856 C14.394492,6.4789578 12.930246,5.1677136 10.2607722,5.1677136 C7.4082582,5.1677136 5.4619362,6.7990986 5.3503254,9.3777642" opacity="0.7"></path>
        </g>
    </g>
</svg>