<?xml version="1.0" encoding="UTF-8"?>
<svg width="200px" height="80px" viewBox="0 0 200 80" version="1.1" xmlns="http://www.w3.org/2000/svg" xmlns:xlink="http://www.w3.org/1999/xlink">
    <title>takeda</title>
    <g id="takeda" stroke="none" stroke-width="1" fill="none" fill-rule="evenodd">
        <g id="takeda_logo" transform="translate(42.000000, 19.000000)" fill-rule="nonzero">
            <path d="M15.83664,12.96624 C6.52672,19.37968 0.00016,28.03824 0.00016,28.03824 L12.2104,36.29264 C12.2104,36.29264 13.27264,33.65488 13.30304,33.58128 C16.20624,39.5624 22.43328,41.16768 25.91424,41.0832 L89.19216,41.0832 C92.71376,41.1792 99.00352,39.5952 101.93408,33.62128 C102.03312,33.86912 102.9888,36.19408 102.9888,36.19408 L115.2,28.028 C115.2,28.028 108.572,19.35904 99.19584,12.95456 C90.55584,7.05472 76.29984,0.0194866487 57.45088,0.0194866487 C42.5860227,0.00532688211 28.0698166,4.52150344 15.83664,12.96624 Z" id="Path"></path>
            <polygon id="Path" fill="#02001D" points="38.96208 19.516 40.01872 17.25936 26.47696 17.25936 25.42 19.516 30.6632 19.516 25.2344 30.564 28.7392 30.564 34.16928 19.516"></polygon>
            <path d="M87.86304,26.9 C86.85696,28.31584 85.43104,29.03248 84.67696,28.50208 C83.9232,27.96512 84.13088,26.38384 85.1376,24.96608 C86.14432,23.54832 87.57136,22.83264 88.32528,23.36416 C89.07696,23.9008 88.87024,25.48112 87.86304,26.9 Z M76.00976,26.84592 C75.00096,28.26608 73.57552,28.98048 72.82224,28.45008 C72.06768,27.91328 72.27456,26.33184 73.28384,24.90848 C74.28992,23.4928 75.71584,22.77616 76.47088,23.30976 C77.22592,23.84336 77.01488,25.428 76.00976,26.84576 M61.28448,25.8176 C61.28448,25.8176 61.93712,23.616 64.0656,22.73488 C64.0656,22.73488 64.66688,22.52688 64.99008,22.7912 C64.99008,22.7912 65.44624,23.23392 64.90336,24.04128 C64.41856,24.76224 63.25712,26.06864 61.99552,26.50704 C61.99552,26.50704 60.85312,27.00304 61.28448,25.8176 M40.608,26.84592 C39.6,28.26608 38.17424,28.98048 37.42032,28.45008 C36.6672,27.91328 36.87536,26.33184 37.88192,24.90848 C38.88864,23.4928 40.3152,22.77616 41.06848,23.30976 C41.82176,23.84336 41.61456,25.428 40.608,26.84576 M91.23664,28.57376 C91.23664,28.57376 90.55376,28.88768 90.25824,28.58352 C89.96272,28.27936 90.22624,27.71328 90.22624,27.71328 L93.09024,21.69728 L90.17168,21.69728 L89.72688,22.4992 C88.02208,21.00016 84.81824,21.7752 82.83088,23.8512 C81.68624,25.04944 81.03568,26.46512 80.94912,27.69792 C80.4562658,28.0255703 79.9307945,28.3012819 79.38112,28.52064 C79.38112,28.52064 78.6992,28.83232 78.40384,28.52704 C78.10848,28.22176 78.37072,27.65568 78.37072,27.65568 L83.45312,17.20368 L80.53696,17.20368 L77.87088,22.444 C76.16832,20.94816 72.964,21.72208 70.97728,23.79808 C70.5908831,24.2031355 70.2488873,24.6483308 69.95712,25.12608 L69.95824,25.11632 C69.9392,25.152 69.91808,25.1888 69.89872,25.2256 C69.83696,25.3328 69.77632,25.44096 69.72272,25.5456 C68.13696,28.29056 66.16544,28.74832 66.16544,28.74832 C61.99824,29.9952 61.52096,27.95392 61.52096,27.95392 C66.19024,26.22592 67.9416,24.18496 67.78416,22.62208 C67.62288,21.05408 65.47488,20.97568 65.47488,20.97568 C61.94576,20.76352 58.89392,23.23168 58.15088,25.64624 C57.9200048,26.3492573 57.8660926,27.0983674 57.99392,27.8272 C56.5816,28.5784 55.76992,28.69856 55.76992,28.69856 C54.59392,29.06976 54.44944,28.51568 54.30736,28.17056 C54.16528,27.82544 53.63696,24.8216 53.63696,24.8216 L58.592,21.58192 L55.5576,21.58192 L51.83392,23.8896 C50.99712,24.23392 51.32192,23.35712 51.32192,23.35712 L54.35984,17.2 L51.44288,17.2 L46.512,27.1912 C45.94512,27.5272 44.80448,28.19248 43.98176,28.52048 C43.98176,28.52048 43.2984,28.83216 43.00176,28.52688 C42.70512,28.2216 42.96976,27.65552 42.96976,27.65552 L45.8328,21.64192 L42.91632,21.64192 L42.46928,22.44384 C40.76704,20.948 37.56256,21.72192 35.57616,23.79792 C33.58976,25.87392 33.08176,28.61136 34.44176,29.90912 C35.52976,30.95248 37.48336,30.76096 39.23776,29.57584 C39.23776,29.57584 39.68272,29.19264 39.92304,29.644 C40.1736,30.104 41.17808,31.15392 43.49104,30.24032 C44.1719827,29.9707697 44.8338265,29.65527 45.472,29.296 L44.86528,30.5256 L47.78336,30.5256 L49.24352,27.56848 L50.51328,26.76112 C50.51328,26.76112 50.90048,26.45488 51.05856,27.10848 C51.05856,27.10848 51.68704,29.59264 51.932,29.9184 C52.17696,30.24416 52.66256,30.97264 54.71216,30.38384 C56.0058804,30.0110132 57.2772792,29.5646882 58.52016,29.04704 C59.20592,29.98992 60.52752,30.63504 62.68848,30.63504 C65.0305843,30.6245826 67.2969678,29.804282 69.1032,28.31328 C69.1502072,28.9171197 69.413066,29.483845 69.84368,29.90976 C70.93168,30.95312 72.88368,30.7616 74.63968,29.57648 C74.63968,29.57648 75.08448,29.19328 75.3264,29.64464 C75.57488,30.10464 76.57984,31.15456 78.89344,30.24096 C79.6785555,29.9445507 80.4295357,29.5646083 81.13344,29.10768 C81.2566194,29.4320171 81.4494755,29.7253702 81.6984,29.96704 C82.7864,31.00704 84.7384,30.8136 86.49392,29.63104 C86.49392,29.63104 86.93824,29.25104 87.1808,29.69808 C87.42976,30.16208 88.4336,31.208 90.7472,30.29552 C93.0608,29.38304 93.72704,28.55504 93.72704,28.55504 L93.14208,27.52352 C92.5518973,27.9496467 91.9121806,28.3025734 91.23696,28.57456" id="Shape" fill="#02001D"></path>
            <path d="M99.408,28.29536 C99.408,28.29536 98.028,36.3472 89.12704,36.3472 L25.82768,36.3472 C16.92928,36.3472 15.67584,28.22176 15.67584,28.22176 C15.3352,26.06448 15.75296,24.58976 16.41616,23.56848 C22.824,15.13024 35.50304,3.80976 57.42192,3.80976 C79.52976,3.80976 92.31216,15.29504 98.72096,23.7352 C99.4608,24.6704 99.73632,26.208 99.408,28.29536 Z M57.45072,2.41456 C22.144,2.41456 3.41968,27.46192 3.41968,27.46192 L11.09712,32.64976 C11.09712,32.64976 12.02512,30.32688 14.15104,27.00176 C14.1527744,27.4766301 14.1936057,27.9505511 14.27312,28.41872 C15.62992,38.94176 25.85712,38.69168 25.85712,38.69168 L89.25872,38.69168 C89.25872,38.69168 99.61936,38.97312 100.97504,28.45552 C101.051248,28.0023728 101.08962,27.5436705 101.08976,27.08416 C103.17456,30.32688 104.0912,32.58048 104.0912,32.58048 L111.75728,27.44896 C111.75728,27.44896 92.7576,2.41456 57.45072,2.41456" id="Shape" fill="#02001D"></path>
        </g>
    </g>
</svg>