<?xml version="1.0" encoding="UTF-8"?>
<svg width="200px" height="80px" viewBox="0 0 200 80" version="1.1" xmlns="http://www.w3.org/2000/svg" xmlns:xlink="http://www.w3.org/1999/xlink">
    <title>telus</title>
    <g id="telus" stroke="none" stroke-width="1" fill="none" fill-rule="evenodd">
        <g id="Group" transform="translate(35.000000, 27.000000)" fill="#02001D" fill-rule="nonzero">
            <polyline id="Path" points="76.8558466 6.98028879 76.8558466 4.26603269 67.3957815 4.26603269 67.3957815 18.2220109 76.8558466 18.2220109 76.8558466 15.3955513 71.2299548 15.3955513 71.2299548 12.2965975 75.9103625 12.2965975 75.9103625 9.58768441 71.2299548 9.58768441 71.2299548 6.98028879 76.8558466 6.98028879"></polyline>
            <polyline id="Path" points="93.5506937 15.4703536 87.6375001 15.4703536 87.6375001 4.26603269 83.7563139 4.26603269 83.7563139 18.2220109 93.5506937 18.2220109 93.5506937 15.4703536"></polyline>
            <path d="M124.788236,9.58234139 C122.171178,8.9785797 121.257036,8.90912039 121.257036,7.84585866 C121.257036,6.85739925 122.552506,6.54750387 123.29949,6.54750387 C124.511381,6.54750387 125.93222,6.83602715 127.379176,7.60007955 L128.434357,5.0300851 C126.950835,4.19657339 125.038973,3.85461987 123.20024,3.85461987 C119.590686,3.85461987 117.166903,5.35066653 117.067653,8.27330056 C116.963179,10.9341264 119.078766,11.9332718 121.027195,12.3446847 C122.902492,12.7400684 124.803907,13.082022 124.845696,14.2200861 C124.882262,15.2726618 123.957672,15.7214757 122.212967,15.7214757 C120.598854,15.7214757 119.094437,15.1925164 117.558677,14.5353245 L116.665431,17.3243829 C118.425807,18.0937783 120.217526,18.5158771 122.066704,18.5158771 C124.631526,18.5158771 126.5016,18.1098074 127.880649,16.7847375 C128.836579,15.8764235 129.15,14.7811035 129.15,13.733871 C129.144776,11.5272021 127.802294,10.2822775 124.788236,9.58234139" id="Path"></path>
            <polyline id="Path" points="61.890034 7.01768996 61.890034 4.26603269 49.9905153 4.26603269 49.9905153 7.01768996 54.007517 7.01768996 54.007517 18.2220109 57.8678086 18.2220109 57.8678086 7.01768996 61.890034 7.01768996"></polyline>
            <path d="M106.782249,4.26603269 L106.782249,13.1354522 C106.782249,13.8300453 106.782249,14.0223943 106.740459,14.2948885 C106.620315,15.1390862 105.81587,15.6306443 104.53607,15.6466734 C103.590586,15.6306443 102.895838,15.3474641 102.571971,14.8398768 C102.410037,14.5780686 102.331682,14.1132257 102.331682,13.3652022 L102.331682,4.26603269 L98.3094565,4.26603269 L98.3094565,13.8888185 C98.3094565,15.2245745 98.4818376,15.8229932 99.0721123,16.5817026 C100.043715,17.8266271 101.934683,18.478476 104.546517,18.478476 C104.572636,18.478476 104.603978,18.478476 104.630096,18.478476 C104.645767,18.478476 104.666662,18.478476 104.687557,18.478476 C108.176967,18.478476 109.979134,17.0839468 110.5015,15.780249 C110.762684,15.1497722 110.783579,14.8505629 110.783579,13.5735802 L110.783579,4.26603269 L106.782249,4.26603269" id="Path"></path>
            <path d="M51.8031285,0.44042765 L29.2473244,5.03542812 L29.2473244,6.64367829 L29.3204559,6.62230619 C44.2235844,2.9195907 51.8031285,0.691549769 51.8658126,0.675520698 C51.9493913,0.654148602 51.9807333,0.584689293 51.970286,0.531259054 C51.9598386,0.472485792 51.8971547,0.424398579 51.8031285,0.44042765" id="Path"></path>
            <path d="M32.872551,1.72275336 C33.2225369,1.49300334 33.3217865,1.63726499 33.2173131,1.89373013 C33.0501557,2.30514296 32.2875,4.8056781 26.6093715,9.57165535 C25.1258494,10.8112369 24.0758919,11.511173 21.9394111,12.8041847 C25.4340458,7.79777143 30.5375708,3.27757329 32.872551,1.72275336 M33.4628256,0.00229969754 C32.3658551,0.0664159833 30.3338477,1.72809639 29.2212061,2.7165558 C24.7810873,6.64367829 21.484952,10.2555624 19.082064,14.0330802 C14.0777888,16.7740515 7.70491223,19.589825 1.36860136,21.7911509 L1.21711494,21.844581 L0,25.2 L0.694748019,24.9221628 C4.72219706,23.3513137 11.4450594,20.4019645 17.5410815,17.126691 C17.1963195,18.0617201 17.0239383,18.921947 17.0239383,19.7073715 C17.0239383,20.2951042 17.1179644,20.8347495 17.3112401,21.3316508 C17.692568,22.3147672 18.45,23.0627904 19.4947339,23.4902324 C21.0566111,24.1260522 23.1826443,24.1420813 25.6116506,23.3887149 C31.8121461,21.4652263 39.1722961,15.561185 40.7759627,14.3857199 L40.833423,14.3429755 C40.8961071,14.2948885 40.9013308,14.2254291 40.8752124,14.1773418 C40.8386467,14.1239116 40.7655153,14.1078825 40.708055,14.1452836 L40.708055,14.1452836 L40.708055,14.1452836 L40.6296999,14.1933709 C38.9111127,15.2459467 30.5584654,20.3164763 25.1258494,21.8071798 C22.3625283,22.5658893 20.252166,22.1491334 19.4581681,21.0110693 C19.1813138,20.6210285 19.0507219,20.1294704 19.0507219,19.5577668 C19.0507219,18.4410748 19.5626416,17.0144876 20.5603625,15.4329524 C21.4745046,14.8986501 22.3259627,14.3803767 23.093842,13.8888185 C28.3906427,10.843295 34.4971121,4.92322463 34.753072,1.31134053 C34.753072,1.28462541 34.753072,1.2579103 34.753072,1.23119517 C34.753072,0.921299794 34.6224802,0.600718364 34.3874151,0.360282293 C34.1471263,0.109160174 33.8180351,-0.0190723978 33.4628256,0.00229969754 Z" id="Shape"></path>
            <polyline id="Path" points="29.1741931 5.0514572 5.44306343 10.2662485 4.52369762 12.7934987 29.2473244 6.64367829 29.2838902 6.63299224 29.2838902 5.02474208 29.1741931 5.0514572"></polyline>
        </g>
    </g>
</svg>