<?xml version="1.0" encoding="UTF-8"?>
<svg width="200px" height="80px" viewBox="0 0 200 80" version="1.1" xmlns="http://www.w3.org/2000/svg" xmlns:xlink="http://www.w3.org/1999/xlink">
    <title>vise</title>
    <g id="vise" stroke="none" stroke-width="1" fill="none" fill-rule="evenodd">
        <g transform="translate(43.000000, 21.000000)" fill="#02001D" fill-rule="nonzero">
            <polygon id="Path" points="46.7427645 9.178767 50.3212815 9.178767 56.5844985 26.7248205 62.8032555 9.178767 66.3017445 9.178767 58.533642 30.6384975 54.5073615 30.6384975"></polygon>
            <polygon id="Path" points="71.599752 9.178767 68.264739 9.178767 68.264739 30.6366165 71.599752 30.6366165"></polygon>
            <path d="M78.03243,23.5681605 C78.0868935,24.858612 78.6359745,25.9106895 79.679502,26.7244785 C80.723115,27.538182 82.072305,27.9450765 83.727072,27.9450765 C85.191174,27.9450765 86.37552,27.643518 87.280965,27.040572 C88.185555,26.437626 88.63956,25.6447845 88.64127,24.6618765 C88.64127,23.8224375 88.424955,23.177853 87.99147,22.728123 C87.523785,22.2636015 86.93811,21.9450285 86.3037,21.808998 C85.612005,21.639879 84.629097,21.4713585 83.3557455,21.3034365 C81.86967,21.1414995 80.400096,20.846268 78.9634395,20.4210765 C77.9056335,20.1084885 76.9495725,19.504944 76.1970015,18.674739 C75.48624,17.8757415 75.1338945,16.7727915 75.139794,15.365889 C75.1234635,14.1571755 75.4876935,12.975822 76.177422,12.000096 C76.9051125,10.9882035 77.8811805,10.1961315 79.0043085,9.7058745 C80.2758645,9.1431135 81.647712,8.8636995 83.030589,8.8861005 C85.4706735,8.8861005 87.45624,9.474939 88.9884,10.652616 C90.519705,11.830293 91.36701,13.5135315 91.53117,15.702246 L88.200945,15.702246 C88.135965,15.1511985 87.961545,14.6199015 87.687945,14.1419565 C87.4152,13.663926 87.04926,13.2495075 86.614065,12.924693 C85.69152,12.196746 84.5390655,11.832174 83.1567015,11.8308915 C81.7471485,11.8308915 80.6088015,12.13245 79.741746,12.735396 C78.874605,13.338342 78.4405215,14.1311835 78.4393245,15.114006 C78.4393245,15.849306 78.643071,16.410015 79.050564,16.7960475 C79.490889,17.2071315 80.0327025,17.483895 80.615898,17.5956435 C81.252018,17.736633 82.220904,17.891046 83.522727,18.058968 C85.0455675,18.219708 86.550795,18.5274225 88.017975,18.978093 C89.11836,19.321461 90.10332,19.977417 90.86085,20.871405 C91.57905,21.7427355 91.937295,22.9210965 91.937295,24.4064025 C91.95696,25.638543 91.569645,26.8405875 90.839475,27.814518 C90.06228,28.8306 89.038845,29.614806 87.872625,30.086595 C86.554215,30.6335385 85.1438925,30.905343 83.723481,30.8862765 C81.012105,30.8862765 78.83613,30.241008 77.195556,28.9505565 C75.554982,27.660105 74.721699,25.864776 74.6956215,23.564484 L78.03243,23.5681605 Z" id="Path"></path>
            <path d="M95.271795,14.1434955 C96.0507,12.5422515 97.257105,11.206143 98.74908,10.2942 C100.2402,9.382428 101.94849,8.926542 103.873095,8.926542 C105.76863,8.926542 107.44956,9.3334365 108.915885,10.14714 C110.374515,10.954602 111.574935,12.181698 112.373505,13.6802565 C113.21226,15.2219925 113.659425,17.034507 113.715,19.1178 C113.715,19.426626 113.68764,19.916883 113.63292,20.5884 L97.52814,20.5884 L97.52814,20.88252 C97.58286,22.9879575 98.206155,24.671196 99.399735,25.9322355 C100.59246,27.193275 102.151125,27.8243505 104.07573,27.825633 C105.56685,27.825633 106.834815,27.440199 107.877915,26.669331 C108.927855,25.891452 109.67085,24.7489155 109.972665,23.450598 L113.34906,23.450598 C112.987395,25.5594555 111.90411,27.4633695 110.29842,28.8146115 C108.66708,30.193299 106.67493,30.8826 104.321115,30.8826 C102.25971,30.8826 100.456515,30.426714 98.910675,29.514942 C97.37424,28.6123185 96.12423,27.2674035 95.312835,25.6435875 C94.457835,23.976936 94.030335,22.0626765 94.0320399,19.9008945 C94.0320399,17.718336 94.44501,15.799203 95.271795,14.1434955 Z M110.25738,17.72073 C110.09664,15.897186 109.439145,14.4805365 108.284895,13.470696 C107.1315,12.460941 105.67458,11.955978 103.914135,11.955978 C102.387105,11.938194 100.90881,12.5082225 99.765675,13.5552555 C98.57124,14.6214405 97.89408,16.0099605 97.732485,17.72073 L110.25738,17.72073 Z" id="Shape"></path>
            <path d="M11.890314,0.24265071 L26.326818,26.1141795 L20.383371,36.765 L0,0.24265071 L11.890314,0.24265071 Z M30.5822385,0 C29.371986,0 28.188837,0.371305125 27.182502,1.0669545 C26.1762525,1.76260815 25.3918755,2.75136435 24.928722,3.9081879 C24.4655685,5.06501145 24.344415,6.33795255 24.580566,7.5660318 C24.8166315,8.7941025 25.3993995,9.9221895 26.2552545,10.807542 C27.111024,11.69298 28.2014055,12.295926 29.388402,12.5401995 C30.575484,12.784473 31.805829,12.65913 32.923998,12.179988 C34.0420815,11.7007605 34.997886,10.8893655 35.670258,9.848232 C36.34263,8.8070985 36.701559,7.58307195 36.701559,6.330933 C36.701559,5.49953955 36.543213,4.67629425 36.2356695,3.9081879 C35.9282115,3.14008155 35.4774555,2.4421707 34.9092225,1.8542898 C34.3409895,1.2664089 33.6663945,0.80007138 32.923998,0.4819122 C32.181516,0.16375302 31.385853,0 30.5822385,0 Z" id="Shape"></path>
        </g>
    </g>
</svg>