<svg width="200" height="80" xmlns="http://www.w3.org/2000/svg"><g fill="#02001D" fill-rule="evenodd"><path d="M56.292 57.97c9.588 0 17.36-7.773 17.36-17.36 0-9.589-7.772-17.361-17.36-17.361s-17.36 7.772-17.36 17.36 7.772 17.36 17.36 17.36Zm-.004-21.631c.167.01.331.08.46.208l2.162 2.162-1.594 1.594-1.024 1.024-.004.005-2.623-2.623.005-.004.005.004 1.05-1.041-.009-.01 1.112-1.111a.715.715 0 0 1 .46-.208Zm4.753 2.366.005.004-1.068 1.069-2.622 2.622 2.359 2.359a.454.454 0 0 0 .306.122.416.416 0 0 0 .307-.122l5.541-5.542a.719.719 0 0 0 0-1.015l-1.654-1.655a.716.716 0 0 0-1.016 0l-2.158 2.158Zm-4.75 4.758 2.365 2.364c.367.368.849.57 1.374.57.517 0 1.007-.202 1.375-.57l5.541-5.542c.42-.42.648-.98.648-1.576 0-.595-.228-1.155-.648-1.575l-1.663-1.655a2.21 2.21 0 0 0-1.576-.648 2.21 2.21 0 0 0-1.576.648l-2.1 2.11-.065-.065-2.046-2.045a2.211 2.211 0 0 0-1.628-.647l-.053-.001c-.595 0-1.155.228-1.575.648l-2.11 2.11-2.11-2.11a2.21 2.21 0 0 0-1.576-.648c-.595 0-1.156.228-1.576.648l-1.654 1.655c-.42.42-.648.98-.648 1.575 0 .596.227 1.156.648 1.576l5.541 5.542c.368.368.85.57 1.375.57.516 0 1.007-.202 1.374-.57l1.34-1.34.007-.007 1.017-1.017Zm-1.067-1.068L52.86 44.76a.416.416 0 0 1-.306.123.453.453 0 0 1-.307-.123l-5.541-5.542a.719.719 0 0 1 0-1.015l1.654-1.655a.716.716 0 0 1 1.016 0l2.162 2.162 1.068 1.068 2.618 2.618Z"/><path fill-rule="nonzero" d="M93.228 31.995h2.889L92.72 43.656h-2.95l-2.206-7.065-2.206 7.065h-2.951l-3.423-11.661h3.178l1.996 7.161 2.128-7.161h2.845l2.127 7.187zM100.135 39.06c.403 1.462 1.497 2.188 3.292 2.188 1.147 0 2.023-.385 2.61-1.164l2.424 1.4c-1.147 1.664-2.845 2.496-5.086 2.496-1.926 0-3.476-.587-4.64-1.751-1.165-1.165-1.751-2.635-1.751-4.404 0-1.76.578-3.222 1.725-4.395 1.146-1.173 2.626-1.76 4.43-1.76 1.706 0 3.116.596 4.228 1.77 1.112 1.181 1.663 2.643 1.663 4.385 0 .385-.035.797-.114 1.235h-8.78Zm-.043-2.33h5.944c-.175-.796-.525-1.382-1.06-1.768a3.063 3.063 0 0 0-1.829-.586c-.805 0-1.48.21-2.005.621-.534.412-.884.99-1.05 1.734ZM111.14 43.656V26.637h3.012v17.019zM116.901 43.656V26.637h3.012v17.019zM125.34 35.304c0 .315.211.56.622.762.412.192.911.367 1.506.516.587.149 1.182.333 1.769.56a3.505 3.505 0 0 1 1.505 1.13c.412.525.622 1.19.622 1.978 0 1.2-.446 2.119-1.34 2.767-.892.648-2.004.972-3.344.972-2.39 0-4.027-.928-4.894-2.776l2.61-1.47c.34 1.006 1.102 1.514 2.284 1.514 1.077 0 1.611-.333 1.611-1.007 0-.306-.21-.56-.621-.761a9.026 9.026 0 0 0-1.506-.526 14.909 14.909 0 0 1-1.769-.586 3.627 3.627 0 0 1-1.505-1.112c-.412-.508-.622-1.138-.622-1.9 0-1.147.42-2.057 1.27-2.714.849-.656 1.9-.99 3.16-.99.945 0 1.812.211 2.591.64a4.678 4.678 0 0 1 1.839 1.83l-2.565 1.4c-.377-.796-.999-1.19-1.865-1.19-.385 0-.71.087-.972.254-.254.184-.385.42-.385.709ZM139.611 34.884h-2.635v4.85c0 .402.105.7.306.884.202.184.5.289.884.315.386.026.867.018 1.445-.009v2.732c-2.066.236-3.528.035-4.369-.587-.849-.621-1.27-1.733-1.27-3.335v-4.85h-2.03v-2.89h2.03V29.64l3.013-.91v3.265h2.635v2.889h-.009ZM143.927 39.06c.402 1.462 1.497 2.188 3.291 2.188 1.147 0 2.023-.385 2.61-1.164l2.424 1.4c-1.147 1.664-2.845 2.496-5.086 2.496-1.926 0-3.476-.587-4.64-1.751-1.165-1.165-1.751-2.635-1.751-4.404 0-1.76.578-3.222 1.725-4.395 1.146-1.173 2.626-1.76 4.43-1.76 1.707 0 3.116.596 4.228 1.77 1.112 1.181 1.663 2.643 1.663 4.385 0 .385-.035.797-.113 1.235h-8.781Zm-.053-2.33h5.944c-.175-.796-.525-1.382-1.059-1.768a3.063 3.063 0 0 0-1.83-.586c-.805 0-1.48.21-2.004.621-.526.412-.876.99-1.05 1.734ZM157.934 34c.28-.745.744-1.305 1.383-1.682a4.205 4.205 0 0 1 2.154-.56v3.362c-.92-.105-1.733.079-2.46.56-.726.482-1.085 1.279-1.085 2.4v5.576h-2.995V31.995h3.012v2.004h-.009ZM83.746 48.13c.534 0 .963.166 1.278.49.316.324.473.761.473 1.313v2.801h-.464v-2.801c0-.42-.114-.753-.35-.998-.228-.245-.56-.368-.98-.368-.465 0-.841.158-1.139.464-.297.307-.437.753-.437 1.33v2.382h-.456v-6.312h.456v2.662c.332-.648.866-.963 1.62-.963ZM92.493 48.13c.665 0 1.2.236 1.61.7.412.473.623 1.024.623 1.672 0 .026 0 .061-.01.105 0 .053-.008.088-.008.105H90.62c.052.508.253.91.612 1.226.35.306.788.464 1.305.464.359 0 .674-.079.945-.228.272-.149.473-.35.613-.595l.394.236c-.184.315-.455.56-.797.744-.341.184-.735.272-1.173.272-.691 0-1.26-.22-1.707-.666-.446-.437-.665-1.006-.665-1.69 0-.673.219-1.234.656-1.68.447-.438 1.007-.665 1.69-.665Zm0 .428c-.508 0-.937.158-1.278.482-.342.315-.534.727-.587 1.234h3.625c-.053-.534-.237-.954-.57-1.26a1.76 1.76 0 0 0-1.19-.456ZM103.436 48.226h.464v4.508h-.464V51.72c-.193.35-.456.621-.797.823a2.176 2.176 0 0 1-1.147.298c-.639 0-1.19-.228-1.646-.683a2.278 2.278 0 0 1-.683-1.673c0-.665.228-1.216.683-1.672a2.248 2.248 0 0 1 1.646-.682c.43 0 .806.096 1.147.297.333.201.604.473.797.823v-1.024Zm-3.257 3.615c.368.377.823.56 1.357.56s.99-.183 1.348-.56c.36-.376.552-.822.552-1.365 0-.534-.184-.99-.552-1.366a1.804 1.804 0 0 0-1.348-.56c-.534 0-.99.184-1.357.56a1.869 1.869 0 0 0-.552 1.366c0 .543.184.998.552 1.365ZM108.987 52.734v-6.583h.455v6.583zM116.831 48.672h-1.34v2.933c0 .263.044.447.14.56.097.114.246.175.438.193.202.017.456.009.762-.026v.402c-.604.088-1.06.044-1.357-.122-.298-.175-.446-.508-.446-1.007v-2.933h-.99v-.438h.99v-1.129l.463-.131v1.26h1.34v.438ZM123.677 48.13c.534 0 .963.166 1.278.49.315.324.473.761.473 1.313v2.801h-.464v-2.801c0-.42-.114-.753-.35-.998-.228-.245-.56-.368-.98-.368-.465 0-.841.158-1.139.464-.298.307-.438.753-.438 1.33v2.382h-.455v-6.312h.455v2.662c.324-.648.867-.963 1.62-.963ZM132.703 48.672h-1.34v2.933c0 .263.045.447.14.56.097.114.246.175.439.193.2.017.455.009.761-.026v.402c-.604.088-1.059.044-1.357-.122-.297-.175-.446-.508-.446-1.007v-2.933h-.99v-.438h.99v-1.129l.464-.131v1.26h1.34v.438ZM139.234 48.13c.665 0 1.2.236 1.61.7.412.464.622 1.024.622 1.672 0 .026 0 .061-.009.105 0 .053-.008.088-.008.105h-4.089c.053.508.254.91.613 1.226.35.306.788.464 1.305.464.358 0 .674-.079.945-.228.271-.149.473-.35.613-.595l.394.236c-.184.315-.455.56-.797.744-.341.184-.735.272-1.173.272-.692 0-1.26-.22-1.707-.666-.447-.437-.666-1.006-.666-1.69 0-.673.22-1.234.657-1.68.447-.438 1.007-.665 1.69-.665Zm0 .428c-.508 0-.937.158-1.278.482-.342.315-.534.727-.587 1.234h3.624c-.052-.534-.236-.954-.569-1.26a1.743 1.743 0 0 0-1.19-.456ZM148.277 52.84c-.682 0-1.243-.228-1.698-.675-.455-.446-.674-1.006-.674-1.68 0-.666.227-1.226.674-1.681.446-.447 1.016-.674 1.698-.674.438 0 .832.104 1.191.315.359.21.613.49.78.84l-.369.219a1.484 1.484 0 0 0-.63-.683 1.914 1.914 0 0 0-.972-.254c-.542 0-.998.184-1.365.552-.368.367-.552.823-.552 1.365 0 .543.184.999.552 1.366.367.368.823.552 1.365.552.36 0 .683-.088.972-.254.289-.166.508-.394.657-.683l.376.228c-.184.35-.446.63-.805.831-.36.21-.762.316-1.2.316ZM157.032 48.13c.534 0 .963.166 1.278.49.315.324.473.761.473 1.313v2.801h-.464v-2.801c0-.42-.114-.753-.35-.998-.228-.245-.56-.368-.98-.368-.465 0-.841.158-1.139.464-.297.307-.438.753-.438 1.33v2.382h-.455v-6.312h.455v2.662c.333-.648.876-.963 1.62-.963Z"/></g></svg>